<svg xmlns="http://www.w3.org/2000/svg" viewBox="0 0 204.484 20.679">
  <path fill="#4299e1"
    d="M16.368 14.369c-.342-.134-.68-.45-.929-.87-.504-.848-.952-3.18-1.285-6.7-.207-2.182-.302-3.608-.308-4.62-.004-.605.005-.757.056-.922.116-.375.342-.534.713-.5.401.036.757.315 1.134.887.242.368.403.783.45 1.162.037.294.088 1.562.143 3.545.036 1.326.066 1.872.156 2.861.095 1.043.298 2.486.358 2.546.04.04.23-.292.672-1.179.604-1.209.878-1.85 2.032-4.763.747-1.884 1.37-3.388 1.574-3.795.332-.666.716-1.124 1-1.197.24-.06.7.033.965.196.478.296.931.972 1.1 1.641.144.58.146.775.034 3.724-.105 2.773-.109 3.384-.029 4.5.04.554.099.994.137 1.017.058.036.686-.702 1.089-1.28.683-.98 1.393-2.36 1.87-3.638.206-.549.558-1.703.803-2.633.637-2.414.864-3.116 1.115-3.444.142-.187.292-.242.54-.198.28.05.515.186.75.438.352.375.444.683.383 1.278-.098.951-.393 1.987-1.111 3.908-.765 2.045-1.346 3.263-2.254 4.724-1.084 1.745-2.239 3.048-2.935 3.31-.164.062-.252.073-.492.061-.378-.019-.623-.13-.897-.409-.672-.683-.894-1.934-.951-5.376-.019-1.085.025-3.869.066-4.206.003-.028-.009-.057-.027-.063-.018-.006-.17.35-.336.793-2.052 5.427-3.794 8.695-4.906 9.204-.178.081-.47.08-.68-.002zM7.841.942c-.501 0-.58.01-.862.096a5.827 5.827 0 00-1.356.652c-1.329.87-2.945 2.716-3.979 4.54C.4 8.428-.214 10.527.067 11.629c.145.568.47 1.076 1.03 1.61.6.57 1.354.982 2.032 1.111.348.066.904.045 1.27-.049 1.033-.264 2.15-1.09 3.33-2.46.208-.24.39-.432.404-.423.014.009.036.168.049.354.072 1.038.297 1.895.605 2.303.333.44.797.416.949-.05.112-.343.24-1.062.312-1.744.025-.23.343-2.145.5-3 .17-.93.248-1.532.253-1.964.006-.436-.022-.537-.223-.81l-.065-.087.241-.483c.32-.641.396-.931.396-1.517 0-.337-.015-.5-.063-.655-.27-.882-1.172-2.036-1.954-2.502a3.446 3.446 0 00-.483-.228C8.41.947 8.357.94 7.841.94zm.28 2.232a.69.69 0 01.177.02c.494.135.76.8.823 2.055l.023.452-.109.045c-.162.068-.306.254-.368.476-.346 1.25-.753 2.173-1.358 3.083A8.473 8.473 0 016.061 10.8c-.644.623-1.212 1.007-1.795 1.212-.36.127-.922.147-1.22.044-.305-.105-.526-.286-.651-.53-.094-.184-.104-.234-.1-.5.015-.878.554-2.295 1.438-3.777 1.096-1.837 2.638-3.481 3.673-3.916.238-.1.51-.158.715-.158zM38.454.929a3.855 3.855 0 00-.783.042c-.97.183-1.903.724-2.915 1.691-1.421 1.359-2.62 3.413-3.111 5.328a6.96 6.96 0 00-.23 2.069c.015.585.03.719.111 1.034.476 1.83 1.97 3.061 3.968 3.272 1.23.13 2.495-.118 3.755-.736.648-.318 1.103-.617 1.416-.93.293-.294.394-.486.394-.75 0-.26-.097-.404-.328-.486-.268-.095-.462-.06-1.464.268-1.308.427-1.82.539-2.761.602-1.196.08-2.05-.12-2.492-.582-.367-.384-.488-.743-.484-1.434.003-.525.06-.927.224-1.566.108-.42.148-.5.232-.468.126.048 1.101.229 1.59.294.692.092 2.129.13 2.692.071 1.693-.177 3.239-.933 3.9-1.908.741-1.091.44-2.655-.797-4.146-.694-.835-1.4-1.344-2.176-1.57a3.337 3.337 0 00-.742-.095zm-.074 2.14c.41-.018.739.131 1.132.5.62.585.959 1.247.919 1.803-.033.452-.31.779-.904 1.067-.572.278-1.149.417-1.996.482a7.57 7.57 0 01-1.143.011c-.586-.024-1.57-.147-1.77-.222l-.08-.03.19-.36c.503-.952 1.222-1.866 1.933-2.458.554-.46 1.033-.703 1.538-.776a1.68 1.68 0 01.181-.018zm9.135 11.3a6.305 6.305 0 01-2.265-.652c-.869-.434-1.608-1.049-1.848-1.538-.107-.216-.117-.264-.117-.55 0-.286.009-.327.097-.46a.59.59 0 01.564-.267c.192.026.332.099.849.44.706.468 1.303.728 2.024.881.358.077 1.595.086 2.086.017 1.194-.17 1.787-.596 1.79-1.287 0-.197-.019-.266-.134-.5-.269-.545-1.1-1.255-2.385-2.036a12.02 12.02 0 01-.793-.53c-.448-.337-1.15-1.021-1.341-1.31-.642-.965-.418-2.011.66-3.082.683-.678 1.754-1.42 2.806-1.945.852-.424 1.543-.625 2.15-.625.39 0 .664.075.983.267.446.27 1.033.95 1.347 1.56.21.406.29.702.271.996-.012.196-.026.231-.124.32a.33.33 0 01-.261.098c-.232 0-.416-.082-.883-.395-.504-.337-.652-.414-.92-.484-.542-.142-1.161.014-2.23.56-1.074.548-1.6 1.08-1.637 1.652-.018.283.063.423.458.797.358.339.808.67 1.605 1.18.969.62 1.31.893 1.83 1.465.757.834 1.065 1.486 1.074 2.276.004.276-.011.392-.074.58-.287.856-1.536 1.871-2.82 2.293-.81.266-1.828.37-2.762.279zM62.163.923c-.246.004-.494.02-.656.052-.964.183-1.9.742-2.858 1.708-1.539 1.55-2.616 3.797-2.941 6.134-.074.532-.057 1.755.032 2.245.198 1.087.62 1.926 1.29 2.568.43.41.815.616 1.355.723.297.06.973.041 1.413-.037.643-.114 1.433-.434 2.034-.825.973-.633 2.03-1.744 2.692-2.832.73-1.201 1.232-2.6 1.416-3.95.086-.628.078-1.612-.018-2.146a5.422 5.422 0 00-.453-1.402C64.856 1.94 63.9 1.153 62.8.958a3.858 3.858 0 00-.637-.034zm.41 1.67c.036.012.172.135.301.273.5.535.789 1.392.827 2.453.045 1.253-.23 2.362-.936 3.77-.447.892-.887 1.546-1.412 2.096-.565.593-1.207 1.019-1.858 1.231-.442.145-.466.145-.66.007-.543-.387-.847-1.263-.847-2.446 0-1.271.345-2.552 1.075-3.992.745-1.472 1.576-2.45 2.563-3.02.324-.186.863-.398.947-.372zm6.192 11.736c-.408-.19-1.067-.964-1.157-1.358-.037-.164.016-.556.157-1.153.12-.503.25-.961.707-2.476.718-2.381.749-2.55 1.052-5.827.188-2.038.226-2.31.351-2.526.167-.286.7-.201 1.165.184.395.328.731.806.832 1.182.223.839-.374 3.863-1.416 7.17-.184.584-.226.765-.162.694.017-.018.26-.46.54-.98 1.13-2.104 2.127-3.88 2.672-4.759.51-.82 1.694-2.333 2.144-2.738.28-.253.714-.542.976-.651.475-.198.963-.214 1.311-.041.254.126.894.751 1.234 1.207.3.4.587.979.685 1.379.129.528.09 1.471-.112 2.768-.078.496-.074.6.017.438l.352-.638C82.037 2.707 83.819.93 85.398.93c.256 0 .324.014.512.103.396.187.771.628 1.109 1.304.679 1.36.67 2.906-.034 6.082-.46 2.074-1.218 4.15-1.88 5.15-.238.361-.606.71-.827.786-.214.072-.343.07-.522-.011-.507-.23-.402-1.07.496-3.967.822-2.649 1.055-3.763 1.054-5.051 0-.929-.1-1.431-.324-1.619-.342-.288-1.066.163-1.77 1.102-.47.626-1.283 1.883-2.167 3.35-.458.762-.94 1.561-1.071 1.776-.13.215-.551.995-.934 1.735-.949 1.832-1.133 2.137-1.497 2.474-.32.296-.536.308-.889.048a2.006 2.006 0 01-.585-.68c-.182-.364-.126-.636.431-2.088.918-2.39 1.345-4.354 1.353-6.223.003-.754-.076-1.038-.384-1.39-.286-.324-.71-.234-1.205.256-.56.555-1.17 1.45-2.868 4.207-1.156 1.877-3.027 4.76-3.454 5.325-.371.49-.747.813-.943.812a.898.898 0 01-.234-.081zM96.24.929a3.855 3.855 0 00-.782.042c-.97.183-1.903.723-2.916 1.691-1.42 1.358-2.62 3.412-3.11 5.328a6.963 6.963 0 00-.23 2.069c.015.585.03.719.111 1.034.476 1.83 1.97 3.061 3.968 3.272 1.231.13 2.495-.118 3.755-.736.648-.318 1.102-.617 1.416-.93.293-.294.394-.486.394-.75 0-.26-.097-.404-.328-.486-.267-.095-.462-.06-1.464.268-1.308.427-1.82.539-2.762.602-1.195.08-2.05-.12-2.491-.582-.367-.384-.488-.743-.484-1.434.003-.526.06-.927.224-1.566.108-.42.148-.5.232-.468.126.048 1.102.228 1.591.294.686.091 2.128.13 2.683.072 1.699-.178 3.246-.934 3.909-1.91.682-1.004.475-2.454-.548-3.826-.759-1.018-1.551-1.635-2.426-1.89A3.342 3.342 0 0096.24.93zm-.073 2.14c.41-.018.74.131 1.132.5.621.585.958 1.247.919 1.803-.033.452-.306.774-.906 1.067-.566.277-1.145.417-1.994.482a7.57 7.57 0 01-1.143.011c-.586-.024-1.57-.147-1.77-.222l-.08-.03.19-.36c.503-.952 1.222-1.866 1.933-2.458.554-.46 1.032-.703 1.538-.776a1.68 1.68 0 01.181-.018z" />
  <path fill="#212222"
    d="M116.06.021c-.943-.019-1.896.158-2.705.522-.738.333-1.68.972-2.394 1.624-.1.092-.204.167-.231.167-.041 0-.3-.457-.905-1.603l-.072-.138-3.361-.01c-1.849-.005-3.397 0-3.44.01l-.08.02.006 10.032.006 10.032 3.883-.004c2.136-.002 3.95-.013 4.031-.026l.148-.023-.012-2.448c-.009-1.822-.024-2.53-.059-2.767a1.885 1.885 0 01-.032-.332 1.51 1.51 0 01.243-.036l.23-.024.25.227c.654.588 1.427.995 2.399 1.262.267.074.527.15.577.169.134.05.985.169 1.384.193.29.017.385.01.603-.053.142-.04.387-.089.543-.107.865-.1 1.849-.66 2.7-1.536 1.503-1.547 2.082-3.008 2.448-6.184.081-.703.076-1.188-.023-2.069-.182-1.623-.745-3.293-1.487-4.413-.33-.499-1.01-1.19-1.484-1.512a6.387 6.387 0 00-1.51-.724 6.353 6.353 0 00-1.656-.25zm-3.634 4.434c.38 0 .507.05.752.298.312.314.472.72.643 1.626.206 1.095.237 1.448.216 2.42-.037 1.656-.256 2.761-.678 3.408-.179.273-.348.432-.586.547-.364.177-.711.087-1.068-.277-.61-.624-.934-1.935-.933-3.775.001-2.337.383-3.725 1.142-4.145.168-.093.214-.102.512-.102zm19.846 12.434c-2.515-.157-4.51-.911-6.38-2.413-1.607-1.292-2.368-2.963-2.532-5.566-.107-1.699.2-3.466.742-4.271.075-.112.183-.278.24-.369a8.688 8.688 0 012.482-2.552c.564-.374 1.198-.667 2.414-1.115.982-.362 2.25-.537 4.068-.559 1.209-.015 1.814.034 2.68.216.918.193 1.409.377 2.587.97 1.515.762 2.371 1.427 3.102 2.407 1.005 1.347 1.524 3.255 1.404 5.16-.098 1.541-.34 2.51-.91 3.644-.295.585-1.03 1.45-1.742 2.046-1.308 1.097-3.36 1.997-5.242 2.3-.855.138-1.801.171-2.913.102z" />
  <path fill="#4299e1"
    d="M130.532 14.629c.104-.031.57-.213 1.034-.403 1.425-.586 1.768-.68 3.162-.87 1.145-.157 1.696-.3 2.337-.605.348-.165.551-.312.622-.45.241-.466.042-1.392-.45-2.083-.167-.237-.75-.813-.982-.971-.274-.188-.576-.32-1.2-.528-.81-.27-1.09-.32-1.817-.323-.554-.002-.607.003-.982.106-1.509.413-2.275.9-2.794 1.774-.193.324-.321.619-.523 1.2-.163.472-.174.525-.191.934-.023.555.031.944.178 1.282.22.504.548.91.804.993.131.043.573.012.802-.056zm7.92-5.03c.154-.064.429-.326.54-.516.272-.465.32-1.154.117-1.696-.097-.26-.4-.575-.605-.629-.267-.07-.394.012-.68.442-.426.642-.563 1.032-.527 1.506.037.486.24.76.664.89.222.067.334.068.49.003zm-9.42-.34c.476-.224.822-.879.756-1.433-.096-.82-.654-1.52-1.216-1.524-.575-.004-.937.575-.936 1.498 0 .562.104.959.327 1.251.212.278.714.375 1.069.208zm2.51-1.51c.391-.152.568-.411.693-1.014.044-.217.047-.309.016-.514-.085-.553-.31-1.093-.572-1.373-.206-.22-.423-.274-.766-.19-.56.138-.85.531-.937 1.272a5.39 5.39 0 00.073 1.363c.048.223.254.466.438.518.225.063.824.028 1.055-.062zm5.01-.02c.334-.166.628-.576.749-1.04.076-.296.07-.83-.013-1.156-.116-.457-.438-1-.715-1.207-.228-.17-.529-.099-.793.19-.12.13-.165.223-.267.55l-.123.394v1.622l.102.204c.244.49.637.654 1.06.443zm-2.42-.44c.338-.1.54-.42.67-1.052.057-.279.07-.43.055-.656a3.82 3.82 0 00-.197-1.016c-.164-.437-.664-.776-.988-.671-.323.105-.73.508-.93.921-.115.239-.13.3-.142.597-.016.394.065.767.252 1.162.127.269.376.615.507.706.104.073.54.078.773.01zm4.79-1.21c.172-.173.163-.866-.02-1.43-.129-.398-.373-.817-.373-.64 0 .032.033.239.073.46.053.3.067.476.052.68-.068.906-.068.862-.006.924.072.073.204.076.274.006zm-10.5-.38c.03-.036.045-.348.053-1.112.006-.584.022-1.103.034-1.153.034-.134-.045-.164-.14-.054-.189.22-.33.87-.333 1.542-.002.44.05.636.206.759.104.081.125.084.18.018zm2.69-1.69c.08-.096.079-.362-.002-.935-.079-.56-.08-.578-.024-1.058.075-.652.045-.675-.165-.129-.216.559-.258.778-.258 1.353 0 .54.035.709.16.782.093.053.239.047.288-.013zm5.57-.37c.062-.084.072-.143.07-.414-.004-.26-.03-.406-.15-.832-.212-.752-.454-1.225-.625-1.225-.102 0-.088.206.052.737.066.249.144.654.173.9.07.59.108.74.217.855.11.114.165.11.263-.021zm-2.81-.34c.027-.051.034-.246.022-.63a5.27 5.27 0 00-.144-1.156c-.133-.629-.17-.739-.237-.717-.113.037-.142.21-.142.853 0 .866.11 1.407.333 1.646.091.097.118.097.168.004z"
    stroke-width=".034" />
  <path fill="#212222"
    d="M178.779.024c-.732 0-.99.032-1.534.19-.162.046-.495.13-.741.186a9.797 9.797 0 00-3.069 1.295c-1.646 1.074-2.843 2.68-3.31 4.443-.18.67-.224 1.051-.264 2.23l-.039 1.12.16.784c.234 1.156.368 1.583.705 2.254a7.309 7.309 0 002.04 2.442c.95.727 1.837 1.127 3.529 1.588.886.242 1.04.271 1.35.251.147-.01.468.01.75.045.284.036.572.053.682.04.104-.01.554-.022 1-.024.904-.005 1.026-.022 2.016-.277 1.18-.303 3.53-1.07 3.867-1.26.756-.428 1.471-1.043 1.83-1.572.31-.457.684-1.31.855-1.955.109-.41.232-1.133.198-1.164-.014-.014-1.679-.03-3.698-.035-3.62-.009-4.08.002-4.18.102a3.066 3.066 0 00-.128.438c-.281 1.15-.552 1.56-1.16 1.755-.167.054-.182.054-.358-.016-.259-.102-.46-.256-.554-.425a2.507 2.507 0 00-.174-.265c-.165-.21-.391-.854-.45-1.276a31.758 31.758 0 01-.112-1.896l-.004-.258 5.447-.018 5.448-.017.01-.517c.012-.598-.024-.927-.168-1.551-.352-1.524-.353-1.526-.823-2.293-.495-.807-.715-1.1-1.154-1.534-.782-.776-1.65-1.353-2.761-1.837-.457-.199-1.393-.527-1.742-.61-.767-.184-2.478-.363-3.465-.363zm.99 3.702c.351-.028.693.138.94.484.29.405.512.894.63 1.382.135.563.235 1.158.206 1.233-.012.031-.08.087-.153.123-.123.063-.233.068-1.76.08l-1.629.013v-.108c0-.213.147-.968.262-1.348.21-.692.575-1.358.878-1.598.2-.158.415-.244.625-.261zm-33.197 12.703c-.02-.024-.106-.4-.192-.836-.325-1.647-.49-2.62-.952-5.586a402.224 402.224 0 00-1.119-6.895c-.231-1.366-.415-2.502-.406-2.526.02-.063 8.795-.063 8.813 0 .076.278.71 6.008.71 6.423 0 .11.05.184.094.14.011-.011.095-.52.185-1.132.09-.612.312-1.997.492-3.078.18-1.08.333-2.012.338-2.068l.011-.104.707-.021a111.62 111.62 0 012.194-.026c1.153-.004 1.494.005 1.52.038.02.024.248 1.424.508 3.112s.485 3.082.5 3.098c.016.015.038.013.05-.006.027-.045.242-1.32.486-2.885.106-.683.237-1.49.292-1.793.054-.304.131-.787.17-1.074a8.23 8.23 0 01.093-.578c.02-.05.421-.055 4.345-.055 2.378 0 4.323.013 4.323.029s-.115.563-.257 1.215c-2.049 9.473-3.206 14.538-3.339 14.623-.023.015-1.905.027-4.183.027-3.323 0-4.15-.008-4.179-.043-.02-.025-.099-.517-.176-1.095-.077-.578-.2-1.477-.275-1.999a207.86 207.86 0 01-.481-3.664c-.093-.742-.116-.856-.162-.81-.01.01-.275 1.716-.587 3.789-.356 2.363-.584 3.778-.61 3.795-.023.015-2.03.027-4.46.027-3.492 0-4.425-.008-4.453-.042zm43.62-.03c-.01-.024-.013-3.588-.008-7.921l.009-7.879 3.505-.009 3.506-.009.02.095c.01.053.152.901.315 1.886.162.985.31 1.82.33 1.855.028.054.068.062.247.054l.214-.01.045-.156c.402-1.385.72-2 1.367-2.637.342-.338.413-.388 1.289-.91.37-.22 1.24-.52 1.902-.655.51-.105.604-.112 1.093-.087l.458.024v7.373l-.164-.027c-.297-.048-1.143-.027-1.489.036-.725.133-1.393.418-1.818.774-.594.5-1.042 1.352-1.252 2.384-.157.77-.173 1.091-.173 3.543v2.319h-4.69c-3.72 0-4.694-.01-4.707-.043z" />
</svg>