<svg xmlns="http://www.w3.org/2000/svg" viewBox="0 0 1441 1272">
  <path fill="#0061B3" fill-opacity=".17"
    d="M1395.84 1254.43c-.39.87.08 2.11 1.62 4.24 1.46 2.03 2.69 3.12 3.48 3.11l.31-.01-.87-1.28c-.48-.7-1.48-2.39-2.23-3.74-1.63-2.93-1.91-3.21-2.31-2.32zm11.28.86c-.08.65.04.96 1.04 2.68 1.04 1.8 1.44 2.25 3.4 3.86 1.83 1.49 1.92 1.42.49-.4-1.11-1.42-1.71-2.49-2.24-4-.55-1.57-1.14-2.64-1.57-2.85-.47-.22-1.04.15-1.12.71zm10.62-3.18c-.27 1.23.9 4.34 2.6 6.9.74 1.1.99 1.4 1.26 1.49.61.21.62.25-.24-2.45-.75-2.33-1.25-3.54-2.04-4.91-.96-1.67-1.38-1.94-1.58-1.03zm8-6.26c-.13.62.05 1.22.96 3.22.61 1.34.87 2.1 1.12 3.22.18.81.47 1.73.64 2.06.27.51.34.58.55.49.14-.05.28-.27.33-.48.13-.64-.07-2.95-.33-3.69-.13-.38-.33-1.15-.44-1.7-.28-1.36-1.15-3.07-1.78-3.48-.54-.36-.92-.22-1.05.36zm2.64-11.86c-.09.35.2.85 1.2 2.08.91 1.12 1.29 1.88 1.94 3.87.25.75.49 1.34.53 1.31.18-.1.13-1.8-.09-2.93-.41-2.22-1.89-4.86-2.75-4.93-.3-.02-.76.31-.83.6zm-44.67-11.18c-.6.85-.8 2.04-.68 3.94.12 1.73.38 2.51 1.49 4.46.9 1.56 1.04 1.75 1.87 2.52 3.9 3.6 6.52 5 9.72 5.2 2.15.13 3.93-.1 7.16-.93 1.67-.43 1.78-.47 3.58-1.52 2.26-1.31 3.12-2.06 5.48-4.75 1.16-1.32 1.77-2.14 2.22-2.96.7-1.28 1.46-3.77 1.65-5.41.39-3.45-1.03-7.32-2.9-7.92-.94-.3-3.58-.1-5.84.45-1.3.31-4.2 1.37-6.46 2.36-3.33 1.45-5.17 1.89-10.83 2.57-3.42.4-4.13.56-5.23 1.12-.71.36-1.04.59-1.23.87zm36.09.93c-.71.69-1.14 1.56-1.13 2.29.01 1.37 1 3.22 2.22 4.19.92.73 3.84 2.27 4.48 2.36 1.11.16 2.01-.95 2.15-2.64.18-2.17-1.31-4.86-3.42-6.21-.89-.56-2.3-.92-3.01-.76-.61.14-.66.17-1.29.78v-.01zm-3.27 9.81c-.41.63-.57 1.49-.48 2.51.08.77.1.83 1.51 3.27l1.43 2.47 1.08 1.03c1.32 1.25 1.56 1.41 2.32 1.57.76.17 1.3.14 1.88-.08.38-.14.51-.27.73-.75.57-1.22.62-3.51.13-5.31-.96-3.43-3.83-5.97-6.55-5.78-1.01.07-1.6.38-2.05 1.07zm-7.15 6.06c-.32.43-.57 2.16-.47 3.34.15 1.72.59 3.12 1.37 4.36.59.92.73 1.06 1.67 1.7 1.71 1.17 4.08 1.64 5.15 1.02.22-.13.6-.54.87-.96.86-1.33.78-2.97-.25-5.42-.68-1.63-1.11-2.29-2.33-3.6-1.48-1.59-2.68-2.06-4.01-1.57-.88.31-1.75.81-2 1.13zm-9.96 3.5c-.63.51-.79.76-.93 1.51-.13.7 0 1.21.67 2.71 1.2 2.67 2.38 4.28 3.77 5.13.88.53 1.44.66 2.59.57 1.05-.08 2.29-.78 2.67-1.5.63-1.17.39-3.95-.52-6.2-.37-.92-.47-1.08-1.26-1.92-1.45-1.53-2.15-1.88-3.52-1.76-1.21.1-2.39.6-3.47 1.46zm-10.31-.12c-.41.64-.54 1.23-.48 2.22.05.81.24 1.44.86 2.79.45.99.67 1.34 1.4 2.21 1.35 1.62 2.45 2.2 3.88 2.06 1.7-.17 2.87-2.2 2.7-4.68-.21-3.07-1.66-5.12-4.18-5.94-1.15-.37-2.03-.28-3.01.28-.62.36-.86.58-1.17 1.06zM1322.84 1107.43c-.39.87.08 2.11 1.62 4.24 1.46 2.03 2.69 3.12 3.48 3.11l.31-.01-.87-1.28c-.48-.7-1.48-2.39-2.23-3.74-1.63-2.93-1.91-3.21-2.31-2.32zm11.28.86c-.08.65.04.96 1.04 2.68 1.04 1.8 1.44 2.25 3.4 3.86 1.83 1.49 1.92 1.42.49-.4-1.11-1.42-1.71-2.49-2.24-4-.55-1.57-1.14-2.64-1.57-2.85-.47-.22-1.04.15-1.12.71zm10.62-3.18c-.27 1.23.9 4.34 2.6 6.9.74 1.1.99 1.4 1.26 1.49.61.21.62.25-.24-2.45-.75-2.33-1.25-3.54-2.04-4.91-.96-1.67-1.38-1.94-1.58-1.03zm8-6.26c-.13.62.05 1.22.96 3.22.61 1.34.87 2.1 1.12 3.22.18.81.47 1.73.64 2.06.27.51.34.58.55.49.14-.05.28-.27.33-.48.13-.64-.07-2.95-.33-3.69-.13-.38-.33-1.15-.44-1.7-.28-1.36-1.15-3.07-1.78-3.48-.54-.36-.92-.22-1.05.36zm2.64-11.86c-.09.35.2.85 1.2 2.08.91 1.12 1.29 1.88 1.94 3.87.25.75.49 1.34.53 1.31.18-.1.13-1.8-.09-2.93-.41-2.22-1.89-4.86-2.75-4.93-.3-.02-.76.31-.83.6zm-44.67-11.18c-.6.85-.8 2.04-.68 3.94.12 1.73.38 2.51 1.49 4.46.9 1.56 1.04 1.75 1.87 2.52 3.9 3.6 6.52 5 9.72 5.2 2.15.13 3.93-.1 7.16-.93 1.67-.43 1.78-.47 3.58-1.52 2.26-1.31 3.12-2.06 5.48-4.75 1.16-1.32 1.77-2.14 2.22-2.96.7-1.28 1.46-3.77 1.65-5.41.39-3.45-1.03-7.32-2.9-7.92-.94-.3-3.58-.1-5.84.45-1.3.31-4.2 1.37-6.46 2.36-3.33 1.45-5.17 1.89-10.83 2.57-3.42.4-4.13.56-5.23 1.12-.71.36-1.04.59-1.23.87zm36.09.93c-.71.69-1.14 1.56-1.13 2.29.01 1.37 1 3.22 2.22 4.19.92.73 3.84 2.27 4.48 2.36 1.11.16 2.01-.95 2.15-2.64.18-2.17-1.31-4.86-3.42-6.21-.89-.56-2.3-.92-3.01-.76-.61.14-.66.17-1.29.78v-.01zm-3.27 9.81c-.41.63-.57 1.49-.48 2.51.08.77.1.83 1.51 3.27l1.43 2.47 1.08 1.03c1.32 1.25 1.56 1.41 2.32 1.57.76.17 1.3.14 1.88-.08.38-.14.51-.27.73-.75.57-1.22.62-3.51.13-5.31-.96-3.43-3.83-5.97-6.55-5.78-1.01.07-1.6.38-2.05 1.07zm-7.15 6.06c-.32.43-.57 2.16-.47 3.34.15 1.72.59 3.12 1.37 4.36.59.92.73 1.06 1.67 1.7 1.71 1.17 4.08 1.64 5.15 1.02.22-.13.6-.54.87-.96.86-1.33.78-2.97-.25-5.42-.68-1.63-1.11-2.29-2.33-3.6-1.48-1.59-2.68-2.06-4.01-1.57-.88.31-1.75.81-2 1.13zm-9.96 3.5c-.63.51-.79.76-.93 1.51-.13.7 0 1.21.67 2.71 1.2 2.67 2.38 4.28 3.77 5.13.88.53 1.44.66 2.59.57 1.05-.08 2.29-.78 2.67-1.5.63-1.17.39-3.95-.52-6.2-.37-.92-.47-1.08-1.26-1.92-1.45-1.53-2.15-1.88-3.52-1.76-1.21.1-2.39.6-3.47 1.46zm-10.31-.12c-.41.64-.54 1.23-.48 2.22.05.81.24 1.44.86 2.79.45.99.67 1.34 1.4 2.21 1.35 1.62 2.45 2.2 3.88 2.06 1.7-.17 2.87-2.2 2.7-4.68-.21-3.07-1.66-5.12-4.18-5.94-1.15-.37-2.03-.28-3.01.28-.62.36-.86.58-1.17 1.06zM1421 969.216c.92.242 1.58 1.389 2.27 3.924.66 2.421.73 4.06.22 4.667l-.2.237-.45-1.482c-.24-.814-.92-2.654-1.49-4.087-1.26-3.108-1.3-3.508-.35-3.259zm-6.44 9.314c.56.342.73.635 1.43 2.493.75 1.942.85 2.536.86 5.07.01 2.357-.1 2.381-.62.134-.4-1.758-.86-2.9-1.7-4.263-.87-1.414-1.33-2.543-1.22-3.016.12-.5.76-.716 1.25-.418zm-9.15 6.245c1.13.566 2.81 3.43 3.72 6.369.4 1.262.47 1.649.37 1.913-.22.611-.2.638-1.75-1.725-1.35-2.05-1.97-3.198-2.54-4.68-.69-1.793-.64-2.294.2-1.877zm-9.9 2.285c.56.284.92.803 1.9 2.764.66 1.318 1.08 1.998 1.79 2.899.52.647 1.06 1.453 1.2 1.791.23.537.24.631.04.743-.13.071-.38.047-.58-.055-.58-.296-2.25-1.904-2.67-2.572-.21-.339-.68-.975-1.04-1.412-.88-1.075-1.66-2.832-1.58-3.572.06-.645.41-.859.94-.586zm-10.88-5.417c.33.151.54.691.86 2.239.3 1.412.65 2.19 1.79 3.948.42.66.73 1.217.68 1.237-.19.071-1.48-1.039-2.22-1.912-1.47-1.724-2.59-4.529-2.09-5.245.16-.242.71-.391.98-.267zm19.42-41.753c1.04.073 2.09.661 3.49 1.954 1.28 1.182 1.72 1.871 2.53 3.964.65 1.682.71 1.913.78 3.044.34 5.294-.21 8.206-2.07 10.819-1.25 1.761-2.55 3-5.23 4.984-1.39 1.025-1.49 1.079-3.44 1.823-2.44.929-3.56 1.129-7.13 1.27-1.76.07-2.78.032-3.71-.136-1.43-.261-3.85-1.24-5.23-2.125-2.93-1.868-5.05-5.402-4.34-7.233.36-.919 2.18-2.849 4.02-4.261 1.07-.816 3.72-2.402 5.9-3.533 3.23-1.671 4.73-2.826 8.82-6.802 2.47-2.401 3.03-2.858 4.16-3.362.73-.323 1.11-.431 1.45-.407v.001zm-21.98 28.64c.97-.12 1.92.093 2.49.559 1.05.869 1.87 2.801 1.86 4.361-.02 1.175-.66 4.415-.99 4.97-.57.956-2.01.959-3.4.007-1.8-1.227-2.96-4.073-2.68-6.569.12-1.041.73-2.366 1.3-2.814.49-.386.55-.407 1.42-.513v-.001zm9.68 3.627c.75.079 1.52.492 2.24 1.208.56.545.59.603 1.6 3.228l1.02 2.672.12 1.487c.14 1.807.12 2.093-.24 2.785-.35.698-.71 1.104-1.24 1.414-.35.206-.54.222-1.05.094-1.31-.325-3.12-1.725-4.2-3.241-2.07-2.9-2.23-6.73-.37-8.728.69-.74 1.3-1.004 2.12-.919zm9.2-1.741c.54.015 2.05.917 2.89 1.733 1.25 1.203 2.06 2.426 2.53 3.811.35 1.034.37 1.237.28 2.365-.17 2.063-1.3 4.207-2.45 4.647-.24.094-.81.125-1.3.072-1.57-.171-2.8-1.264-4.06-3.607-.83-1.557-1.08-2.302-1.33-4.072-.3-2.152.09-3.377 1.3-4.11.8-.483 1.74-.85 2.14-.839zm9-5.539c.79-.173 1.08-.135 1.75.229.63.342.94.756 1.68 2.225 1.33 2.609 1.83 4.54 1.62 6.157-.14 1.017-.4 1.533-1.19 2.369-.72.765-2.04 1.292-2.84 1.137-1.3-.25-3.32-2.183-4.5-4.307-.48-.869-.54-1.048-.69-2.187-.28-2.09-.11-2.853.84-3.842.85-.882 1.97-1.482 3.33-1.781zm6.39-8.09c.75.08 1.3.357 2.03 1.028.6.551.96 1.091 1.62 2.422.49.969.62 1.364.84 2.476.4 2.069.17 3.286-.84 4.31-1.2 1.218-3.52.854-5.34-.841-2.25-2.092-2.94-4.513-1.98-6.987.44-1.124 1.05-1.755 2.11-2.165.66-.253.99-.305 1.56-.243zM1238.84 941.432c-.39.866.08 2.104 1.62 4.234 1.46 2.035 2.69 3.127 3.48 3.111l.31-.007-.87-1.28c-.48-.704-1.48-2.385-2.23-3.736-1.63-2.929-1.91-3.214-2.31-2.322zm11.28.859c-.08.648.04.964 1.04 2.683 1.04 1.798 1.44 2.25 3.4 3.855 1.83 1.493 1.92 1.422.49-.395-1.11-1.421-1.71-2.495-2.24-4.007-.55-1.568-1.14-2.633-1.57-2.844-.47-.223-1.04.143-1.12.708zm10.62-3.183c-.27 1.237.9 4.341 2.6 6.902.74 1.1.99 1.403 1.26 1.493.61.208.62.246-.24-2.448-.75-2.338-1.25-3.544-2.04-4.919-.96-1.664-1.38-1.938-1.58-1.028zm8-6.254c-.13.614.05 1.217.96 3.214.61 1.342.87 2.097 1.12 3.22.18.807.47 1.734.64 2.06.27.517.34.58.55.496.14-.054.28-.27.33-.488.13-.636-.07-2.942-.33-3.689-.13-.38-.33-1.143-.44-1.697-.28-1.362-1.15-3.074-1.78-3.481-.54-.355-.92-.222-1.05.365zm2.64-11.862c-.09.348.2.849 1.2 2.076.91 1.119 1.29 1.882 1.94 3.873.25.747.49 1.336.53 1.308.18-.1.13-1.8-.09-2.927-.41-2.225-1.89-4.861-2.75-4.929-.3-.023-.76.312-.83.599zm-44.67-11.183c-.6.853-.8 2.038-.68 3.939.12 1.736.38 2.512 1.49 4.46.9 1.565 1.04 1.756 1.87 2.525 3.9 3.597 6.52 4.995 9.72 5.196 2.15.135 3.93-.096 7.16-.929 1.67-.43 1.78-.475 3.58-1.523 2.26-1.312 3.12-2.055 5.48-4.742 1.16-1.323 1.77-2.142 2.22-2.966.7-1.281 1.46-3.773 1.65-5.408.39-3.451-1.03-7.32-2.9-7.918-.94-.3-3.58-.1-5.84.442-1.3.314-4.2 1.373-6.46 2.36-3.33 1.458-5.17 1.895-10.83 2.571-3.42.409-4.13.561-5.23 1.121-.71.359-1.04.59-1.23.871v.001zm36.09.936c-.71.685-1.14 1.554-1.13 2.286.01 1.365 1 3.22 2.22 4.19.92.731 3.84 2.269 4.48 2.36 1.11.157 2.01-.955 2.15-2.637.18-2.17-1.31-4.861-3.42-6.214-.89-.564-2.3-.923-3.01-.761-.61.139-.66.172-1.29.776zm-3.27 9.805c-.41.632-.57 1.491-.48 2.508.08.775.1.833 1.51 3.268l1.43 2.479 1.08 1.027c1.32 1.247 1.56 1.408 2.32 1.57.76.164 1.3.142 1.88-.077.38-.145.51-.277.73-.757.57-1.219.62-3.51.13-5.305-.96-3.432-3.83-5.97-6.55-5.781-1.01.069-1.6.377-2.05 1.068zm-7.15 6.059c-.32.428-.57 2.165-.47 3.336.15 1.729.59 3.128 1.37 4.363.59.921.73 1.067 1.67 1.704 1.71 1.166 4.08 1.638 5.15 1.023.22-.131.6-.548.87-.962.86-1.332.78-2.976-.25-5.428-.68-1.629-1.11-2.286-2.33-3.593-1.48-1.589-2.68-2.058-4.01-1.577-.88.317-1.75.814-2 1.134zm-9.96 3.505c-.63.503-.79.753-.93 1.503-.13.705 0 1.21.67 2.712 1.2 2.669 2.38 4.277 3.77 5.128.88.535 1.44.66 2.59.571 1.05-.082 2.29-.774 2.67-1.496.63-1.169.39-3.953-.52-6.206-.37-.921-.47-1.077-1.26-1.912-1.45-1.531-2.15-1.881-3.52-1.764-1.21.104-2.39.598-3.47 1.464zm-10.31-.123c-.41.635-.54 1.233-.48 2.221.05.813.24 1.435.86 2.79.45.987.67 1.339 1.4 2.207 1.35 1.617 2.45 2.198 3.88 2.058 1.7-.166 2.87-2.194 2.7-4.677-.21-3.067-1.66-5.123-4.18-5.936-1.15-.37-2.03-.288-3.01.281-.62.351-.86.574-1.17 1.056zM1351 792.216c.92.242 1.58 1.389 2.27 3.924.66 2.422.73 4.06.22 4.667l-.2.237-.45-1.481c-.24-.815-.92-2.655-1.49-4.088-1.26-3.108-1.3-3.508-.35-3.259zm-6.44 9.314c.56.342.73.635 1.43 2.493.75 1.942.85 2.536.86 5.07.01 2.357-.1 2.382-.62.135-.4-1.759-.86-2.901-1.7-4.264-.87-1.414-1.33-2.543-1.22-3.016.12-.5.76-.716 1.25-.418zm-9.15 6.245c1.13.566 2.81 3.43 3.72 6.369.4 1.262.47 1.65.37 1.913-.22.611-.2.638-1.75-1.725-1.35-2.05-1.97-3.198-2.54-4.68-.69-1.793-.64-2.294.2-1.877zm-9.9 2.285c.56.284.92.803 1.9 2.764.66 1.318 1.08 1.998 1.79 2.899.52.647 1.06 1.453 1.2 1.791.23.537.24.631.04.743-.13.071-.38.047-.58-.055-.58-.296-2.25-1.904-2.67-2.572-.21-.339-.68-.975-1.04-1.412-.88-1.075-1.66-2.831-1.58-3.572.06-.645.41-.859.94-.586zm-10.88-5.417c.33.151.54.691.86 2.239.3 1.412.65 2.19 1.79 3.948.42.66.73 1.217.68 1.237-.19.072-1.48-1.039-2.22-1.912-1.47-1.724-2.59-4.529-2.09-5.245.16-.242.71-.391.98-.267zm19.42-41.753c1.04.073 2.09.661 3.49 1.954 1.28 1.182 1.72 1.871 2.53 3.964.65 1.682.71 1.913.78 3.044.34 5.294-.21 8.206-2.07 10.819-1.25 1.761-2.55 3-5.23 4.984-1.39 1.025-1.49 1.079-3.44 1.823-2.44.929-3.56 1.129-7.13 1.27-1.76.07-2.78.032-3.71-.135-1.43-.262-3.85-1.241-5.23-2.126-2.93-1.868-5.05-5.402-4.34-7.233.36-.919 2.18-2.849 4.02-4.261 1.07-.816 3.72-2.402 5.9-3.533 3.23-1.671 4.73-2.826 8.82-6.802 2.47-2.401 3.03-2.858 4.16-3.362.73-.323 1.11-.431 1.45-.407v.001zm-21.98 28.64c.97-.12 1.92.093 2.49.559 1.05.869 1.87 2.801 1.86 4.361-.02 1.175-.66 4.415-.99 4.97-.57.956-2.01.959-3.4.007-1.8-1.227-2.96-4.073-2.68-6.569.12-1.041.73-2.366 1.3-2.814.49-.386.55-.407 1.42-.513v-.001zm9.68 3.627c.75.079 1.52.492 2.24 1.208.56.545.59.603 1.6 3.228l1.02 2.672.12 1.487c.14 1.807.12 2.093-.24 2.785-.35.698-.71 1.105-1.24 1.414-.35.206-.54.222-1.05.094-1.31-.325-3.12-1.725-4.2-3.241-2.07-2.9-2.23-6.73-.37-8.727.69-.741 1.3-1.005 2.12-.92zm9.2-1.741c.54.015 2.05.917 2.89 1.733 1.25 1.203 2.06 2.426 2.53 3.811.35 1.034.37 1.237.28 2.365-.17 2.063-1.3 4.207-2.45 4.647-.24.094-.81.125-1.3.072-1.57-.171-2.8-1.263-4.06-3.607-.83-1.557-1.08-2.302-1.33-4.072-.3-2.152.09-3.377 1.3-4.11.8-.483 1.74-.85 2.14-.839zm9-5.539c.79-.173 1.08-.135 1.75.229.63.342.94.756 1.68 2.225 1.33 2.609 1.83 4.54 1.62 6.157-.14 1.017-.4 1.533-1.19 2.369-.72.765-2.04 1.292-2.84 1.137-1.3-.25-3.32-2.182-4.5-4.307-.48-.869-.54-1.048-.69-2.187-.28-2.09-.11-2.853.84-3.842.85-.882 1.97-1.482 3.33-1.781zm6.39-8.09c.75.08 1.3.357 2.03 1.028.6.551.96 1.092 1.62 2.422.49.969.62 1.364.84 2.476.4 2.069.17 3.286-.84 4.31-1.2 1.218-3.52.854-5.34-.84-2.25-2.093-2.94-4.514-1.98-6.988.44-1.124 1.05-1.755 2.11-2.165.66-.253.99-.304 1.56-.243zM1173.84 782.432c-.39.866.08 2.104 1.62 4.234 1.46 2.035 2.69 3.127 3.48 3.111l.31-.007-.87-1.28c-.48-.704-1.48-2.385-2.23-3.736-1.63-2.929-1.91-3.214-2.31-2.322zm11.28.859c-.08.648.04.964 1.04 2.683 1.04 1.798 1.44 2.25 3.4 3.855 1.83 1.493 1.92 1.422.49-.395-1.11-1.421-1.71-2.495-2.24-4.007-.55-1.568-1.14-2.633-1.57-2.844-.47-.223-1.04.143-1.12.708zm10.62-3.183c-.27 1.237.9 4.341 2.6 6.902.74 1.1.99 1.403 1.26 1.493.61.208.62.246-.24-2.448-.75-2.338-1.25-3.544-2.04-4.919-.96-1.664-1.38-1.938-1.58-1.028zm8-6.254c-.13.614.05 1.217.96 3.214.61 1.342.87 2.097 1.12 3.22.18.807.47 1.734.64 2.06.27.517.34.58.55.496.14-.054.28-.27.33-.488.13-.636-.07-2.942-.33-3.689-.13-.38-.33-1.143-.44-1.697-.28-1.362-1.15-3.074-1.78-3.481-.54-.355-.92-.222-1.05.365zm2.64-11.862c-.09.348.2.849 1.2 2.076.91 1.119 1.29 1.882 1.94 3.873.25.747.49 1.336.53 1.308.18-.1.13-1.8-.09-2.927-.41-2.225-1.89-4.861-2.75-4.929-.3-.023-.76.312-.83.599zm-44.67-11.183c-.6.853-.8 2.038-.68 3.939.12 1.736.38 2.512 1.49 4.46.9 1.565 1.04 1.756 1.87 2.525 3.9 3.597 6.52 4.995 9.72 5.196 2.15.135 3.93-.096 7.16-.929 1.67-.43 1.78-.475 3.58-1.523 2.26-1.312 3.12-2.055 5.48-4.742 1.16-1.323 1.77-2.142 2.22-2.966.7-1.281 1.46-3.773 1.65-5.408.39-3.451-1.03-7.32-2.9-7.918-.94-.3-3.58-.1-5.84.442-1.3.314-4.2 1.373-6.46 2.36-3.33 1.458-5.17 1.895-10.83 2.571-3.42.409-4.13.561-5.23 1.121-.71.359-1.04.59-1.23.871v.001zm36.09.936c-.71.685-1.14 1.554-1.13 2.286.01 1.365 1 3.22 2.22 4.19.92.731 3.84 2.269 4.48 2.36 1.11.157 2.01-.955 2.15-2.637.18-2.17-1.31-4.861-3.42-6.214-.89-.564-2.3-.923-3.01-.761-.61.139-.66.172-1.29.776zm-3.27 9.805c-.41.632-.57 1.491-.48 2.508.08.775.1.833 1.51 3.268l1.43 2.479 1.08 1.027c1.32 1.247 1.56 1.408 2.32 1.57.76.164 1.3.142 1.88-.077.38-.145.51-.277.73-.757.57-1.219.62-3.51.13-5.305-.96-3.432-3.83-5.97-6.55-5.781-1.01.069-1.6.377-2.05 1.068zm-7.15 6.059c-.32.428-.57 2.165-.47 3.336.15 1.729.59 3.128 1.37 4.363.59.921.73 1.067 1.67 1.704 1.71 1.166 4.08 1.638 5.15 1.023.22-.131.6-.548.87-.962.86-1.332.78-2.976-.25-5.428-.68-1.629-1.11-2.286-2.33-3.593-1.48-1.589-2.68-2.058-4.01-1.577-.88.317-1.75.814-2 1.134zm-9.96 3.505c-.63.503-.79.753-.93 1.503-.13.705 0 1.21.67 2.712 1.2 2.669 2.38 4.277 3.77 5.128.88.535 1.44.66 2.59.571 1.05-.082 2.29-.774 2.67-1.496.63-1.169.39-3.953-.52-6.206-.37-.921-.47-1.077-1.26-1.912-1.45-1.531-2.15-1.881-3.52-1.764-1.21.104-2.39.598-3.47 1.464zm-10.31-.123c-.41.635-.54 1.233-.48 2.221.05.813.24 1.435.86 2.79.45.987.67 1.339 1.4 2.207 1.35 1.617 2.45 2.198 3.88 2.058 1.7-.166 2.87-2.194 2.7-4.677-.21-3.067-1.66-5.123-4.18-5.936-1.15-.37-2.03-.288-3.01.281-.62.351-.86.574-1.17 1.056zM1231.73 624.927c.95-.037 1.92.866 3.32 3.089 1.33 2.123 1.89 3.667 1.57 4.398l-.12.285-.86-1.286c-.47-.707-1.66-2.269-2.63-3.471-2.1-2.606-2.26-2.976-1.28-3.015zm-3.44 10.789c.64.165.88.396 2.1 1.965 1.28 1.64 1.55 2.179 2.3 4.599.7 2.25.61 2.306-.55.309-.9-1.563-1.67-2.522-2.87-3.58-1.25-1.096-2.02-2.043-2.05-2.528-.03-.513.52-.908 1.07-.765zm-6.92 8.648c1.25.211 3.68 2.46 5.42 5.002.75 1.092.93 1.441.91 1.721-.03.651 0 .669-2.18-1.137-1.88-1.567-2.81-2.482-3.79-3.733-1.19-1.513-1.28-2.008-.36-1.853zm-8.8 5.079c.62.109 1.11.5 2.62 2.089 1.02 1.068 1.62 1.594 2.57 2.247.68.469 1.43 1.082 1.67 1.363.38.446.41.534.25.699-.1.105-.35.157-.57.118-.64-.114-2.71-1.165-3.3-1.68-.31-.263-.94-.734-1.41-1.047-1.16-.77-2.42-2.222-2.56-2.952-.13-.635.14-.941.73-.837zm-11.99-1.999c.36.048.72.504 1.48 1.89.7 1.263 1.26 1.905 2.86 3.253.6.507 1.06.949 1.02.983-.16.123-1.72-.561-2.68-1.179-1.91-1.22-3.8-3.575-3.54-4.404.09-.28.57-.583.86-.543zm6.37-45.608c1.01-.233 2.19.022 3.9.85 1.57.757 2.19 1.288 3.58 3.052 1.12 1.417 1.24 1.621 1.64 2.681 1.88 4.962 2.19 7.911 1.18 10.953-.68 2.05-1.56 3.615-3.54 6.296-1.03 1.384-1.11 1.466-2.76 2.747-2.06 1.603-3.07 2.12-6.45 3.3-1.66.581-2.65.844-3.58.954-1.45.17-4.04-.061-5.63-.501-3.35-.931-6.4-3.691-6.26-5.651.08-.983 1.25-3.361 2.6-5.249.78-1.092 2.85-3.383 4.61-5.104 2.6-2.542 3.69-4.084 6.44-9.082 1.66-3.018 2.07-3.621 3-4.433.6-.521.93-.736 1.27-.813zm-12.65 33.818c.9-.401 1.86-.474 2.54-.193 1.26.523 2.61 2.129 3.05 3.626.34 1.127.67 4.414.51 5.042-.27 1.081-1.64 1.503-3.25 1.001-2.07-.649-4.02-3.031-4.48-5.5-.19-1.03.01-2.476.42-3.071.36-.513.41-.551 1.21-.904v-.001zm10.31.639c.74-.145 1.6.026 2.51.497.69.359.73.406 2.46 2.621l1.76 2.256.55 1.388c.67 1.686.73 1.967.59 2.732-.13.771-.36 1.264-.78 1.716-.27.3-.44.369-.97.397-1.35.07-3.49-.738-4.97-1.872-2.82-2.168-4.1-5.783-2.9-8.237.44-.909.94-1.341 1.75-1.498zm8.3-4.357c.52-.144 2.22.279 3.27.812 1.54.786 2.68 1.718 3.53 2.906.63.886.72 1.073.96 2.18.44 2.023-.02 4.403-.98 5.159-.21.161-.74.355-1.22.448-1.56.297-3.06-.388-4.94-2.261-1.26-1.245-1.71-1.886-2.46-3.507-.92-1.97-.91-3.254.04-4.31.62-.695 1.41-1.32 1.8-1.427zm6.98-7.927c.7-.396.99-.445 1.74-.293.7.143 1.12.447 2.27 1.635 2.02 2.109 3.07 3.807 3.34 5.416.17 1.012.07 1.581-.44 2.612-.47.944-1.58 1.832-2.39 1.919-1.32.141-3.81-1.117-5.56-2.804-.72-.69-.82-.845-1.3-1.89-.88-1.917-.94-2.695-.32-3.92.55-1.091 1.45-1.993 2.66-2.675zm3.75-9.606c.74-.143 1.34-.038 2.24.39.73.353 1.24.763 2.26 1.841.75.785.99 1.124 1.53 2.123.99 1.861 1.12 3.095.45 4.369-.79 1.515-3.11 1.843-5.35.756-2.77-1.342-4.13-3.457-3.94-6.103.09-1.203.49-1.985 1.39-2.688.56-.435.86-.58 1.42-.688zM1072.4 672.876c-.23.921.45 2.058 2.33 3.889 1.8 1.75 3.19 2.612 3.97 2.458l.31-.06-1.08-1.109c-.59-.611-1.88-2.092-2.85-3.292-2.11-2.602-2.44-2.834-2.68-1.886zm11.27-1.114c.03.654.2.943 1.48 2.463 1.34 1.59 1.81 1.965 4.02 3.205 2.06 1.154 2.13 1.068.42-.474-1.34-1.207-2.12-2.16-2.91-3.557-.81-1.448-1.57-2.395-2.04-2.526-.5-.14-1 .32-.97.889zm9.9-4.977c-.06 1.265 1.64 4.118 3.76 6.344.91.957 1.22 1.21 1.49 1.253.65.098.66.135-.66-2.37-1.13-2.172-1.84-3.273-2.86-4.49-1.23-1.472-1.7-1.668-1.73-.737zm6.79-7.549c-.02.627.26 1.19 1.5 2.999.83 1.216 1.22 1.914 1.66 2.977.32.763.77 1.626.99 1.917.36.462.44.512.63.393.13-.077.23-.314.24-.537.02-.65-.58-2.886-.96-3.577-.19-.352-.52-1.069-.73-1.595-.51-1.292-1.67-2.826-2.36-3.119-.59-.256-.95-.058-.97.542zm.54-12.14c-.03.359.34.801 1.54 1.836 1.09.944 1.6 1.63 2.59 3.477.37.693.71 1.232.75 1.196.15-.129-.19-1.794-.6-2.867-.79-2.119-2.71-4.459-3.57-4.375-.29.028-.69.438-.71.733zm-45.94-3.256c-.43.943-.43 2.146.02 3.996.42 1.691.81 2.409 2.25 4.134 1.15 1.386 1.32 1.55 2.28 2.162 4.46 2.865 7.28 3.788 10.47 3.43 2.14-.242 3.86-.778 6.89-2.159 1.57-.713 1.66-.776 3.26-2.122 2-1.683 2.71-2.565 4.57-5.62.91-1.504 1.38-2.418 1.68-3.307.47-1.384.78-3.97.68-5.612-.22-3.466-2.28-7.031-4.23-7.295-.98-.133-3.55.524-5.67 1.45-1.23.535-3.9 2.082-5.95 3.445-3.03 2.014-4.77 2.764-10.23 4.413-3.29.997-3.97 1.27-4.96 2.013-.63.476-.91.76-1.06 1.072zm35.71-5.346c-.58.798-.85 1.729-.71 2.448.25 1.342 1.54 2.998 2.91 3.741 1.03.56 4.18 1.568 4.82 1.546 1.12-.037 1.82-1.29 1.66-2.97-.2-2.167-2.13-4.561-4.45-5.526-.97-.402-2.42-.509-3.09-.227-.58.243-.62.284-1.14.988zm-1.52 10.224c-.29.694-.3 1.568-.03 2.553.21.751.24.803 2.05 2.957l1.84 2.192 1.25.824c1.51 1 1.77 1.117 2.54 1.145.79.028 1.32-.088 1.84-.403.36-.209.46-.361.6-.873.34-1.299 0-3.564-.8-5.246-1.54-3.215-4.81-5.215-7.45-4.556-.99.244-1.51.649-1.84 1.407zm-5.98 7.208c-.25.479-.19 2.232.11 3.368.45 1.676 1.13 2.978 2.11 4.058.74.806.9.925 1.93 1.39 1.89.851 4.31.903 5.25.113.2-.168.5-.645.7-1.099.61-1.461.25-3.067-1.19-5.303-.96-1.486-1.49-2.059-2.92-3.134-1.73-1.307-2.99-1.562-4.22-.856-.81.465-1.59 1.105-1.77 1.463zm-9.21 5.183c-.53.605-.64.877-.65 1.64 0 .717.21 1.193 1.13 2.555 1.64 2.421 3.09 3.799 4.6 4.395.96.376 1.54.4 2.65.113 1.02-.262 2.12-1.159 2.38-1.937.41-1.26-.3-3.961-1.59-6.022-.53-.842-.66-.978-1.58-1.663-1.69-1.256-2.44-1.48-3.77-1.127-1.18.315-2.25 1.004-3.17 2.046zm-10.17 1.669c-.3.696-.32 1.308-.09 2.27.2.791.49 1.371 1.33 2.598.61.895.9 1.203 1.76 1.932 1.62 1.356 2.8 1.738 4.18 1.352 1.65-.459 2.45-2.659 1.85-5.076-.73-2.983-2.52-4.757-5.15-5.119-1.19-.164-2.04.068-2.92.8-.54.452-.74.714-.96 1.243zM1096.7 509.545c.94-.103 1.97.73 3.53 2.85 1.48 2.024 2.14 3.526 1.88 4.277l-.1.292-.95-1.222c-.53-.673-1.81-2.148-2.87-3.28-2.28-2.452-2.46-2.81-1.49-2.917zm-2.67 11.002c.64.12.9.333 2.23 1.813 1.39 1.548 1.69 2.067 2.61 4.428.86 2.196.77 2.259-.52.346-1.01-1.496-1.85-2.399-3.12-3.37-1.32-1.007-2.15-1.898-2.22-2.379-.07-.509.46-.942 1.02-.838zm-6.31 9.11c1.26.123 3.85 2.197 5.76 4.612.82 1.037 1.03 1.372 1.03 1.653.01.651.04.667-2.25-.983-1.99-1.431-2.99-2.279-4.05-3.459-1.29-1.426-1.42-1.913-.49-1.823zm-8.42 5.68c.62.065 1.14.422 2.76 1.901 1.09.994 1.73 1.478 2.72 2.063.71.42 1.5.979 1.76 1.243.41.418.44.504.3.679-.09.112-.34.182-.56.159-.65-.07-2.78-.974-3.41-1.447a17.7 17.7 0 00-1.48-.946c-1.21-.687-2.57-2.047-2.76-2.765-.17-.626.07-.949.67-.887zm-12.1-1.158c.36.024.75.453 1.61 1.782.78 1.212 1.39 1.813 3.08 3.046.64.463 1.12.873 1.08.91-.15.134-1.75-.44-2.76-.989-1.98-1.084-4.04-3.302-3.83-4.147.07-.285.53-.622.82-.602zm3.17-45.941c1-.303 2.19-.13 3.96.576 1.61.646 2.27 1.131 3.78 2.795 1.21 1.336 1.35 1.53 1.82 2.56 2.22 4.82 2.74 7.739 1.94 10.844-.54 2.093-1.31 3.715-3.1 6.528-.92 1.452-1 1.539-2.55 2.933-1.95 1.742-2.92 2.329-6.2 3.741-1.62.695-2.59 1.027-3.51 1.202-1.44.271-4.04.221-5.65-.108-3.41-.694-6.65-3.235-6.64-5.2.01-.986 1.01-3.44 2.23-5.418.7-1.144 2.6-3.573 4.24-5.413 2.41-2.716 3.4-4.331 5.79-9.509 1.45-3.126 1.81-3.756 2.68-4.632.56-.56.88-.798 1.21-.899zm-10.26 34.619c.87-.463 1.83-.604 2.52-.371 1.3.435 2.76 1.943 3.3 3.405.41 1.101.97 4.357.86 4.994-.19 1.097-1.53 1.614-3.17 1.225-2.12-.502-4.22-2.743-4.85-5.174-.27-1.014-.17-2.47.2-3.092.32-.537.37-.579 1.14-.987zm10.33-.083c.73-.196 1.6-.086 2.54.321.71.31.76.354 2.64 2.443l1.91 2.128.65 1.346c.78 1.636.86 1.911.78 2.684-.08.779-.27 1.286-.66 1.766-.25.318-.42.399-.95.464-1.33.164-3.53-.492-5.08-1.52-2.97-1.966-4.49-5.483-3.47-8.014.37-.939.85-1.404 1.64-1.618zm7.98-4.925c.5-.179 2.23.124 3.31.582 1.6.676 2.8 1.527 3.73 2.653.69.84.79 1.021 1.11 2.108.58 1.987.29 4.393-.62 5.215-.2.175-.71.405-1.19.531-1.53.406-3.07-.173-5.08-1.91-1.34-1.154-1.83-1.763-2.7-3.327-1.05-1.901-1.13-3.183-.26-4.302.57-.738 1.32-1.416 1.7-1.55zm6.41-8.395c.67-.444.96-.513 1.71-.413.71.093 1.16.368 2.38 1.472 2.17 1.963 3.33 3.584 3.71 5.17.24.999.18 1.573-.26 2.637-.4.974-1.44 1.937-2.25 2.081-1.3.233-3.88-.848-5.74-2.41-.76-.638-.88-.785-1.43-1.794-1.01-1.851-1.12-2.623-.59-3.888.48-1.128 1.31-2.09 2.47-2.855zm3.07-9.844c.73-.194 1.34-.131 2.26.234.75.3 1.29.674 2.39 1.677.8.732 1.06 1.053 1.66 2.013 1.12 1.787 1.34 3.009.76 4.326-.68 1.567-2.97 2.056-5.28 1.128-2.86-1.146-4.36-3.161-4.36-5.814.01-1.206.36-2.015 1.2-2.779.53-.472.81-.637 1.37-.785zM957.278 586.011c.095.945 1.124 1.78 3.52 2.857 2.289 1.029 3.895 1.362 4.575.95l.265-.16-1.393-.674c-.766-.37-2.477-1.324-3.803-2.119-2.873-1.723-3.262-1.828-3.164-.854zm10.206-4.901c.251.604.514.816 2.238 1.807 1.802 1.035 2.373 1.227 4.874 1.637 2.326.381 2.368.275.229-.588-1.673-.676-2.73-1.305-3.944-2.35-1.26-1.083-2.304-1.71-2.789-1.674-.512.039-.827.642-.608 1.168zm7.6-8.062c.382 1.207 2.949 3.309 5.708 4.674 1.185.586 1.556.721 1.831.666.639-.129.662-.097-1.429-2.001-1.814-1.652-2.85-2.447-4.225-3.241-1.663-.961-2.167-.987-1.885-.098zm3.805-9.419c.193.597.65 1.03 2.433 2.306 1.199.858 1.805 1.38 2.583 2.228.558.609 1.27 1.268 1.582 1.465.494.312.586.331.727.152.09-.114.107-.373.037-.585-.201-.617-1.529-2.514-2.123-3.033a17.115 17.115 0 01-1.232-1.249c-.924-1.038-2.537-2.084-3.28-2.126-.647-.036-.912.271-.727.842zm-3.648-11.591c.098.346.598.635 2.077 1.198 1.348.514 2.062.983 3.62 2.382.585.525 1.087.915 1.114.867.101-.173-.794-1.62-1.54-2.49-1.473-1.719-4.07-3.264-4.854-2.89-.265.127-.498.648-.417.933zm-44.278 12.651c-.09 1.037.327 2.165 1.386 3.748.967 1.447 1.579 1.989 3.519 3.118 1.559.907 1.778 1.002 2.883 1.251 5.176 1.166 8.14 1.069 11.011-.357 1.935-.962 3.362-2.052 5.741-4.387 1.229-1.205 1.298-1.298 2.338-3.109 1.3-2.264 1.671-3.338 2.37-6.844.344-1.726.467-2.743.446-3.681-.034-1.461-.623-3.997-1.28-5.506-1.387-3.184-4.547-5.828-6.467-5.41-.963.209-3.154 1.706-4.836 3.303-.973.924-2.954 3.291-4.413 5.273-2.155 2.928-3.53 4.226-8.097 7.644-2.758 2.063-3.298 2.551-3.973 3.588-.432.663-.598 1.026-.628 1.369zm31.728-17.237c-.272.948-.21 1.916.162 2.546.694 1.175 2.473 2.29 4.017 2.519 1.162.173 4.463.044 5.063-.198 1.033-.415 1.261-1.831.539-3.356-.931-1.968-3.56-3.558-6.07-3.672-1.046-.047-2.451.35-2.982.844-.458.425-.489.481-.729 1.317zm2.068 10.127c-.04.753.248 1.579.841 2.411.452.634.504.671 2.939 2.077l2.479 1.431 1.451.348c1.762.423 2.048.444 2.787.204.745-.241 1.202-.531 1.591-1.008.258-.316.303-.495.257-1.023-.117-1.339-1.216-3.35-2.544-4.656-2.54-2.497-6.298-3.257-8.562-1.733-.838.565-1.195 1.126-1.239 1.949zm-3.16 8.821c-.07.535.586 2.162 1.26 3.126.993 1.422 2.073 2.414 3.369 3.092.966.505 1.162.561 2.292.645 2.064.154 4.358-.626 4.972-1.69.131-.227.25-.777.274-1.269.078-1.583-.809-2.97-2.926-4.578-1.408-1.069-2.106-1.425-3.815-1.947-2.079-.634-3.349-.443-4.263.64-.602.714-1.111 1.581-1.163 1.981zm-6.878 8.018c-.294.751-.302 1.044-.048 1.763.24.677.6 1.052 1.934 2.016 2.371 1.713 4.199 2.514 5.829 2.556 1.026.026 1.576-.148 2.525-.799.869-.596 1.595-1.815 1.568-2.633-.043-1.325-1.636-3.619-3.551-5.115-.782-.612-.95-.696-2.052-1.024-2.02-.601-2.8-.556-3.926.23-1.003.7-1.771 1.713-2.279 3.006zm-8.991 5.049c-.038.755.15 1.338.699 2.162.451.678.927 1.121 2.137 1.987.882.631 1.251.825 2.315 1.213 1.98.722 3.22.678 4.389-.159 1.391-.995 1.393-3.337.005-5.403-1.714-2.551-3.998-3.607-6.592-3.049-1.179.254-1.897.764-2.469 1.75-.353.61-.455.926-.484 1.499zM925.389 423.765c.804-.507 2.096-.21 4.419 1.015 2.22 1.17 3.471 2.23 3.566 3.02l.036.307-1.388-.683c-.764-.375-2.569-1.137-4.011-1.692-3.127-1.203-3.449-1.445-2.622-1.967zm2.422 11.06c.631-.174.96-.098 2.802.651 1.925.782 2.428 1.114 4.29 2.833 1.733 1.598 1.675 1.696-.322.543-1.562-.903-2.709-1.349-4.28-1.663-1.629-.325-2.766-.762-3.036-1.166-.285-.428-.003-1.047.546-1.198zm-1.674 10.952c1.186-.442 4.423.287 7.197 1.62 1.192.573 1.526.783 1.652 1.034.293.582.331.581-2.457.105-2.418-.412-3.682-.74-5.155-1.334-1.78-.719-2.111-1.099-1.237-1.425zm-5.08 8.797c.59-.215 1.212-.122 3.316.498 1.414.417 2.198.572 3.345.663.824.066 1.782.221 2.128.345.55.198.622.258.568.479-.034.142-.228.314-.438.39-.61.221-2.922.342-3.697.194a17.489 17.489 0 00-1.743-.202c-1.387-.089-3.204-.716-3.694-1.276-.427-.487-.349-.885.215-1.091zm-11.379 4.262c.332-.136.868.08 2.222.899 1.235.746 2.045 1.019 4.106 1.386.774.138 1.39.293 1.37.344-.075.186-1.766.372-2.911.32-2.262-.103-5.078-1.198-5.265-2.046-.064-.287.203-.791.478-.903zm-17.292-42.68c.762-.71 1.907-1.076 3.807-1.216 1.736-.129 2.54.02 4.624.853 1.674.67 1.884.784 2.761 1.502 4.104 3.361 5.853 5.756 6.497 8.897.434 2.117.453 3.912.078 7.225-.194 1.71-.224 1.822-1.011 3.756-.984 2.418-1.601 3.372-3.933 6.081-1.149 1.334-1.874 2.057-2.627 2.618-1.172.873-3.534 1.97-5.127 2.381-3.363.868-7.391.005-8.244-1.765-.428-.888-.598-3.536-.375-5.845.129-1.335.775-4.353 1.439-6.724.98-3.501 1.156-5.383 1.038-11.086-.072-3.444-.02-4.17.381-5.339.257-.75.44-1.104.692-1.338zm5.951 35.614c.58-.798 1.381-1.345 2.106-1.44 1.353-.176 3.328.539 4.458 1.614.852.81 2.782 3.49 2.962 4.112.308 1.07-.667 2.121-2.314 2.491-2.124.478-4.995-.615-6.63-2.523-.681-.795-1.233-2.147-1.171-2.869.053-.623.078-.681.589-1.385zm9.254-4.606c.569-.495 1.396-.776 2.417-.821.778-.035.839-.016 3.446 1.037l2.654 1.073 1.167.929c1.418 1.128 1.611 1.34 1.878 2.07.268.735.321 1.274.185 1.875-.091.398-.204.543-.648.832-1.128.732-3.389 1.105-5.236.862-3.531-.465-6.444-2.958-6.636-5.68-.071-1.009.151-1.636.773-2.177zm5.005-7.921c.379-.383 2.065-.868 3.239-.931 1.732-.093 3.179.148 4.51.751.994.45 1.158.571 1.92 1.409 1.392 1.532 2.19 3.82 1.729 4.959-.097.242-.458.675-.831.997-1.2 1.036-2.838 1.191-5.409.512-1.709-.451-2.419-.781-3.883-1.807-1.779-1.248-2.411-2.366-2.12-3.753.192-.914.562-1.849.845-2.137zm2.084-10.356c.411-.694.637-.881 1.36-1.123.68-.228 1.197-.175 2.779.283 2.809.813 4.566 1.76 5.602 3.02.652.792.854 1.332.925 2.482.066 1.052-.447 2.374-1.109 2.856-1.071.781-3.859.939-6.217.351-.964-.24-1.133-.321-2.07-.987-1.717-1.221-2.161-1.864-2.236-3.235-.066-1.222.26-2.451.966-3.647zm-1.557-10.193c.572-.495 1.147-.705 2.134-.781.812-.062 1.455.041 2.881.461 1.041.307 1.421.478 2.381 1.078 1.789 1.115 2.517 2.12 2.578 3.556.072 1.709-1.772 3.152-4.255 3.33-3.066.22-5.304-.929-6.461-3.317-.525-1.085-.566-1.965-.141-3.023.263-.654.449-.928.883-1.304zM807.607 531.654c.555.771 1.864.979 4.478.714 2.496-.254 4.054-.768 4.437-1.464l.149-.272-1.543.113c-.849.062-2.808.092-4.353.067-3.35-.056-3.739.048-3.168.842zm6.389-9.347c.519.397.853.449 2.841.445 2.079-.004 2.669-.124 5.04-1.019 2.205-.833 2.188-.946-.096-.624-1.787.252-3.016.235-4.591-.062-1.632-.309-2.85-.33-3.251-.056-.425.29-.396.969.057 1.316zm2.55-10.783c.935.855 4.209 1.391 7.28 1.194 1.32-.085 1.709-.153 1.92-.339.489-.431.524-.415-2.239-1.018-2.397-.523-3.691-.694-5.28-.694-1.92-.001-2.369.228-1.681.857zm-1.414-10.059c.466.421 1.078.567 3.261.78 1.467.144 2.252.294 3.35.639.788.248 1.734.463 2.102.477.584.023.673-.006.707-.231.021-.144-.094-.377-.261-.526-.483-.433-2.581-1.412-3.355-1.565a17.46 17.46 0 01-1.692-.465c-1.319-.438-3.239-.537-3.903-.201-.578.291-.655.69-.209 1.092zm-8.955-8.214c.258.251.836.25 2.398-.001 1.425-.229 2.277-.179 4.326.253.77.162 1.399.249 1.399.194 0-.201-1.498-1.006-2.58-1.387-2.135-.752-5.156-.792-5.647-.075-.167.242-.108.809.104 1.016zm-32.02 33.095c.44.943 1.365 1.711 3.074 2.553 1.561.77 2.362.933 4.607.941 1.804.006 2.04-.021 3.123-.358 5.064-1.579 7.583-3.144 9.356-5.815 1.196-1.801 1.886-3.458 2.779-6.67.461-1.658.475-1.773.47-3.861-.007-2.611-.221-3.727-1.369-7.112-.565-1.667-.967-2.609-1.455-3.411-.759-1.249-2.538-3.151-3.862-4.129-2.793-2.064-6.851-2.773-8.305-1.452-.729.663-1.878 3.055-2.537 5.28-.38 1.286-.912 4.326-1.185 6.773-.402 3.613-.944 5.424-3.19 10.667-1.357 3.167-1.581 3.859-1.647 5.094-.042.791-.005 1.188.141 1.5zm18.859-30.792c.238.957.776 1.764 1.413 2.124 1.189.67 3.287.747 4.738.174 1.093-.432 3.887-2.194 4.286-2.704.687-.876.176-2.216-1.211-3.176-1.791-1.238-4.863-1.301-7.093-.144-.929.482-1.947 1.528-2.161 2.221-.184.598-.183.661.028 1.505zm6.854 7.737c.342.672 1.004 1.243 1.934 1.667.708.323.772.329 3.584.329h2.862l1.43-.424c1.738-.515 1.996-.64 2.517-1.217.524-.581.775-1.06.874-1.669.065-.402.014-.579-.289-1.013-.772-1.102-2.728-2.294-4.532-2.761-3.448-.892-7.082.328-8.281 2.78-.444.909-.472 1.573-.099 2.308zm1.674 9.219c.207.497 1.589 1.579 2.654 2.077 1.571.735 3.003 1.053 4.463.993 1.09-.045 1.288-.095 2.308-.587 1.865-.899 3.461-2.721 3.461-3.95 0-.262-.172-.798-.397-1.236-.725-1.41-2.185-2.167-4.823-2.501-1.754-.222-2.536-.182-4.278.221-2.117.49-3.121 1.29-3.371 2.686-.164.919-.172 1.925-.017 2.297zm-1.947 10.383c.12.797.26 1.055.84 1.551.545.465 1.045.61 2.682.778 2.91.298 4.894.079 6.326-.701.902-.49 1.291-.916 1.788-1.955.454-.95.474-2.369.041-3.064-.7-1.125-3.227-2.316-5.633-2.654-.983-.139-1.17-.127-2.288.14-2.051.489-2.703.918-3.286 2.162-.519 1.108-.677 2.369-.47 3.743zm-5.262 8.868c.344.673.799 1.083 1.685 1.523.73.361 1.365.507 2.845.652 1.079.105 1.496.088 2.611-.107 2.077-.365 3.128-1.023 3.722-2.332.707-1.557-.462-3.586-2.697-4.682-2.76-1.352-5.266-1.125-7.233.656-.894.809-1.262 1.61-1.263 2.749-.001.705.068 1.03.33 1.541zM731.607 401.346c.555-.771 1.864-.979 4.478-.714 2.496.254 4.054.768 4.437 1.464l.149.272-1.543-.113c-.849-.062-2.808-.092-4.353-.067-3.35.056-3.739-.048-3.168-.842zm6.389 9.347c.519-.397.853-.449 2.841-.445 2.079.004 2.669.124 5.04 1.019 2.205.833 2.188.946-.096.624-1.787-.252-3.016-.235-4.591.062-1.632.309-2.85.33-3.251.056-.425-.29-.396-.969.057-1.316zm2.55 10.783c.935-.855 4.209-1.391 7.28-1.194 1.32.085 1.709.153 1.92.339.489.431.524.415-2.239 1.018-2.397.523-3.691.694-5.28.694-1.92.001-2.369-.228-1.681-.857zm-1.414 10.059c.466-.421 1.078-.567 3.261-.78 1.467-.144 2.252-.294 3.35-.639.788-.248 1.734-.463 2.102-.477.584-.023.673.006.707.231.021.144-.094.377-.261.526-.483.433-2.581 1.412-3.355 1.565a17.46 17.46 0 00-1.692.465c-1.319.438-3.239.537-3.903.201-.578-.291-.655-.69-.209-1.092zm-8.955 8.214c.258-.251.836-.25 2.398.001 1.425.229 2.277.179 4.326-.253.77-.162 1.399-.249 1.399-.194 0 .201-1.498 1.006-2.58 1.387-2.135.752-5.156.792-5.647.075-.167-.242-.108-.809.104-1.016zm-32.02-33.095c.44-.943 1.365-1.711 3.074-2.553 1.561-.77 2.362-.933 4.607-.941 1.804-.006 2.04.021 3.123.358 5.064 1.579 7.583 3.144 9.356 5.815 1.196 1.801 1.886 3.458 2.779 6.67.461 1.658.475 1.773.47 3.861-.007 2.611-.221 3.727-1.369 7.112-.565 1.667-.967 2.609-1.455 3.411-.759 1.249-2.538 3.151-3.862 4.129-2.793 2.064-6.851 2.773-8.305 1.452-.729-.663-1.878-3.055-2.537-5.28-.38-1.286-.912-4.326-1.185-6.773-.402-3.613-.944-5.424-3.19-10.667-1.357-3.167-1.581-3.859-1.647-5.094-.042-.791-.005-1.188.141-1.5zm18.859 30.792c.238-.957.776-1.764 1.413-2.124 1.189-.67 3.287-.747 4.738-.174 1.093.432 3.887 2.194 4.286 2.704.687.876.176 2.216-1.211 3.176-1.791 1.238-4.863 1.301-7.093.144-.929-.482-1.947-1.528-2.161-2.221-.184-.598-.183-.661.028-1.505zm6.854-7.737c.342-.672 1.004-1.243 1.934-1.667.708-.323.772-.329 3.584-.329h2.862l1.43.424c1.738.515 1.996.64 2.517 1.217.524.581.775 1.06.874 1.669.065.402.014.579-.289 1.013-.772 1.102-2.728 2.294-4.532 2.761-3.448.892-7.082-.328-8.281-2.78-.444-.909-.472-1.573-.099-2.308zm1.674-9.219c.207-.497 1.589-1.579 2.654-2.077 1.571-.735 3.003-1.053 4.463-.993 1.09.045 1.288.095 2.308.587 1.865.899 3.461 2.721 3.461 3.95 0 .262-.172.798-.397 1.236-.725 1.41-2.185 2.167-4.823 2.501-1.754.222-2.536.182-4.278-.221-2.117-.49-3.121-1.29-3.371-2.686-.164-.919-.172-1.925-.017-2.297zm-1.947-10.383c.12-.797.26-1.055.84-1.551.545-.465 1.045-.61 2.682-.778 2.91-.298 4.894-.079 6.326.701.902.49 1.291.916 1.788 1.955.454.95.474 2.369.041 3.064-.7 1.125-3.227 2.316-5.633 2.654-.983.139-1.17.127-2.288-.14-2.051-.489-2.703-.918-3.286-2.162-.519-1.108-.677-2.369-.47-3.743zm-5.262-8.868c.344-.673.799-1.083 1.685-1.523.73-.361 1.365-.507 2.845-.652 1.079-.105 1.496-.088 2.611.107 2.077.365 3.128 1.023 3.722 2.332.707 1.557-.462 3.586-2.697 4.682-2.76 1.352-5.266 1.125-7.233-.656-.894-.809-1.262-1.61-1.263-2.749-.001-.705.068-1.03.33-1.541zM646.607 552.654c.555.771 1.864.979 4.478.714 2.496-.254 4.054-.768 4.437-1.464l.149-.272-1.543.113c-.849.062-2.808.092-4.353.067-3.35-.056-3.739.048-3.168.842zm6.389-9.347c.519.397.853.449 2.841.445 2.079-.004 2.669-.124 5.04-1.019 2.205-.833 2.188-.946-.096-.624-1.787.252-3.016.235-4.591-.062-1.632-.309-2.85-.33-3.251-.056-.425.29-.396.969.057 1.316zm2.55-10.783c.935.855 4.209 1.391 7.28 1.194 1.32-.085 1.709-.153 1.92-.339.489-.431.524-.415-2.239-1.018-2.397-.523-3.691-.694-5.28-.694-1.92-.001-2.369.228-1.681.857zm-1.414-10.059c.466.421 1.078.567 3.261.78 1.467.144 2.252.294 3.35.639.788.248 1.734.463 2.102.477.584.023.673-.006.707-.231.021-.144-.094-.377-.261-.526-.483-.433-2.581-1.412-3.355-1.565a17.46 17.46 0 01-1.692-.465c-1.319-.438-3.239-.537-3.903-.201-.578.291-.655.69-.209 1.092zm-8.955-8.214c.258.251.836.25 2.398-.001 1.425-.229 2.277-.179 4.326.253.77.162 1.399.249 1.399.194 0-.201-1.498-1.006-2.58-1.387-2.135-.752-5.156-.792-5.647-.075-.167.242-.108.809.104 1.016zm-32.02 33.095c.44.943 1.365 1.711 3.074 2.553 1.561.77 2.362.933 4.607.941 1.804.006 2.04-.021 3.123-.358 5.064-1.579 7.583-3.144 9.356-5.815 1.196-1.801 1.886-3.458 2.779-6.67.461-1.658.475-1.773.47-3.861-.007-2.611-.221-3.727-1.369-7.112-.565-1.667-.967-2.609-1.455-3.411-.759-1.249-2.538-3.151-3.862-4.129-2.793-2.064-6.851-2.773-8.305-1.452-.729.663-1.878 3.055-2.537 5.28-.38 1.286-.912 4.326-1.185 6.773-.402 3.613-.944 5.424-3.19 10.667-1.357 3.167-1.581 3.859-1.647 5.094-.042.791-.005 1.188.141 1.5zm18.859-30.792c.238.957.776 1.764 1.413 2.124 1.189.67 3.287.747 4.738.174 1.093-.432 3.887-2.194 4.286-2.704.687-.876.176-2.216-1.211-3.176-1.791-1.238-4.863-1.301-7.093-.144-.929.482-1.947 1.528-2.161 2.221-.184.598-.183.661.028 1.505zm6.854 7.737c.342.672 1.004 1.243 1.934 1.667.708.323.772.329 3.584.329h2.862l1.43-.424c1.738-.515 1.996-.64 2.517-1.217.524-.581.775-1.06.874-1.669.065-.402.014-.579-.289-1.013-.772-1.102-2.728-2.294-4.532-2.761-3.448-.892-7.082.328-8.281 2.78-.444.909-.472 1.573-.099 2.308zm1.674 9.219c.207.497 1.589 1.579 2.654 2.077 1.571.735 3.003 1.053 4.463.993 1.09-.045 1.288-.095 2.308-.587 1.865-.899 3.461-2.721 3.461-3.95 0-.262-.172-.798-.397-1.236-.725-1.41-2.185-2.167-4.823-2.501-1.754-.222-2.536-.182-4.278.221-2.117.49-3.121 1.29-3.371 2.686-.164.919-.172 1.925-.017 2.297zm-1.947 10.383c.12.797.26 1.055.84 1.551.545.465 1.045.61 2.682.778 2.91.298 4.894.079 6.326-.701.902-.49 1.291-.916 1.788-1.955.454-.95.474-2.369.041-3.064-.7-1.125-3.227-2.316-5.633-2.654-.983-.139-1.17-.127-2.288.14-2.051.489-2.703.918-3.286 2.162-.519 1.108-.677 2.369-.47 3.743zm-5.262 8.868c.344.673.799 1.083 1.685 1.523.73.361 1.365.507 2.845.652 1.079.105 1.496.088 2.611-.107 2.077-.365 3.128-1.023 3.722-2.332.707-1.557-.462-3.586-2.697-4.682-2.76-1.352-5.266-1.125-7.233.656-.894.809-1.262 1.61-1.263 2.749-.001.705.068 1.03.33 1.541zM556.607 391.346c.555-.771 1.864-.979 4.478-.714 2.496.254 4.054.768 4.437 1.464l.149.272-1.543-.113c-.849-.062-2.808-.092-4.353-.067-3.35.056-3.739-.048-3.168-.842zm6.389 9.347c.519-.397.853-.449 2.841-.445 2.079.004 2.669.124 5.04 1.019 2.205.833 2.188.946-.096.624-1.787-.252-3.016-.235-4.591.062-1.632.309-2.85.33-3.251.056-.425-.29-.396-.969.057-1.316zm2.55 10.783c.935-.855 4.209-1.391 7.28-1.194 1.32.085 1.709.153 1.92.339.489.431.524.415-2.239 1.018-2.397.523-3.691.694-5.28.694-1.92.001-2.369-.228-1.681-.857zm-1.414 10.059c.466-.421 1.078-.567 3.261-.78 1.467-.144 2.252-.294 3.35-.639.788-.248 1.734-.463 2.102-.477.584-.023.673.006.707.231.021.144-.094.377-.261.526-.483.433-2.581 1.412-3.355 1.565a17.46 17.46 0 00-1.692.465c-1.319.438-3.239.537-3.903.201-.578-.291-.655-.69-.209-1.092zm-8.955 8.214c.258-.251.836-.25 2.398.001 1.425.229 2.277.179 4.326-.253.77-.162 1.399-.249 1.399-.194 0 .201-1.498 1.006-2.58 1.387-2.135.752-5.156.792-5.647.075-.167-.242-.108-.809.104-1.016zm-32.02-33.095c.44-.943 1.365-1.711 3.074-2.553 1.561-.77 2.362-.933 4.607-.941 1.804-.006 2.04.021 3.123.358 5.064 1.579 7.583 3.144 9.356 5.815 1.196 1.801 1.886 3.458 2.779 6.67.461 1.658.475 1.773.47 3.861-.007 2.611-.221 3.727-1.369 7.112-.565 1.667-.967 2.609-1.455 3.411-.759 1.249-2.538 3.151-3.862 4.129-2.793 2.064-6.851 2.773-8.305 1.452-.729-.663-1.878-3.055-2.537-5.28-.38-1.286-.912-4.326-1.185-6.773-.402-3.613-.944-5.424-3.19-10.667-1.357-3.167-1.581-3.859-1.647-5.094-.042-.791-.005-1.188.141-1.5zm18.859 30.792c.238-.957.776-1.764 1.413-2.124 1.189-.67 3.287-.747 4.738-.174 1.093.432 3.887 2.194 4.286 2.704.687.876.176 2.216-1.211 3.176-1.791 1.238-4.863 1.301-7.093.144-.929-.482-1.947-1.528-2.161-2.221-.184-.598-.183-.661.028-1.505zm6.854-7.737c.342-.672 1.004-1.243 1.934-1.667.708-.323.772-.329 3.584-.329h2.862l1.43.424c1.738.515 1.996.64 2.517 1.217.524.581.775 1.06.874 1.669.065.402.014.579-.289 1.013-.772 1.102-2.728 2.294-4.532 2.761-3.448.892-7.082-.328-8.281-2.78-.444-.909-.472-1.573-.099-2.308zm1.674-9.219c.207-.497 1.589-1.579 2.654-2.077 1.571-.735 3.003-1.053 4.463-.993 1.09.045 1.288.095 2.308.587 1.865.899 3.461 2.721 3.461 3.95 0 .262-.172.798-.397 1.236-.725 1.41-2.185 2.167-4.823 2.501-1.754.222-2.536.182-4.278-.221-2.117-.49-3.121-1.29-3.371-2.686-.164-.919-.172-1.925-.017-2.297zm-1.947-10.383c.12-.797.26-1.055.84-1.551.545-.465 1.045-.61 2.682-.778 2.91-.298 4.894-.079 6.326.701.902.49 1.291.916 1.788 1.955.454.95.474 2.369.041 3.064-.7 1.125-3.227 2.316-5.633 2.654-.983.139-1.17.127-2.288-.14-2.051-.489-2.703-.918-3.286-2.162-.519-1.108-.677-2.369-.47-3.743zm-5.262-8.868c.344-.673.799-1.083 1.685-1.523.73-.361 1.365-.507 2.845-.652 1.079-.105 1.496-.088 2.611.107 2.077.365 3.128 1.023 3.722 2.332.707 1.557-.462 3.586-2.697 4.682-2.76 1.352-5.266 1.125-7.233-.656-.894-.809-1.262-1.61-1.263-2.749-.001-.705.068-1.03.33-1.541zM468.607 530.654c.555.771 1.864.979 4.478.714 2.496-.254 4.054-.768 4.437-1.464l.149-.272-1.543.113c-.849.062-2.808.092-4.353.067-3.35-.056-3.739.048-3.168.842zm6.389-9.347c.519.397.853.449 2.841.445 2.079-.004 2.669-.124 5.04-1.019 2.205-.833 2.188-.946-.096-.624-1.787.252-3.016.235-4.591-.062-1.632-.309-2.85-.33-3.251-.056-.425.29-.396.969.057 1.316zm2.55-10.783c.935.855 4.209 1.391 7.28 1.194 1.32-.085 1.709-.153 1.92-.339.489-.431.524-.415-2.239-1.018-2.397-.523-3.691-.694-5.28-.694-1.92-.001-2.369.228-1.681.857zm-1.414-10.059c.466.421 1.078.567 3.261.78 1.467.144 2.252.294 3.35.639.788.248 1.734.463 2.102.477.584.023.673-.006.707-.231.021-.144-.094-.377-.261-.526-.483-.433-2.581-1.412-3.355-1.565a17.46 17.46 0 01-1.692-.465c-1.319-.438-3.239-.537-3.903-.201-.578.291-.655.69-.209 1.092zm-8.955-8.214c.258.251.836.25 2.398-.001 1.425-.229 2.277-.179 4.326.253.77.162 1.399.249 1.399.194 0-.201-1.498-1.006-2.58-1.387-2.135-.752-5.156-.792-5.647-.075-.167.242-.108.809.104 1.016zm-32.02 33.095c.44.943 1.365 1.711 3.074 2.553 1.561.77 2.362.933 4.607.941 1.804.006 2.04-.021 3.123-.358 5.064-1.579 7.583-3.144 9.356-5.815 1.196-1.801 1.886-3.458 2.779-6.67.461-1.658.475-1.773.47-3.861-.007-2.611-.221-3.727-1.369-7.112-.565-1.667-.967-2.609-1.455-3.411-.759-1.249-2.538-3.151-3.862-4.129-2.793-2.064-6.851-2.773-8.305-1.452-.729.663-1.878 3.055-2.537 5.28-.38 1.286-.912 4.326-1.185 6.773-.402 3.613-.944 5.424-3.19 10.667-1.357 3.167-1.581 3.859-1.647 5.094-.042.791-.005 1.188.141 1.5zm18.859-30.792c.238.957.776 1.764 1.413 2.124 1.189.67 3.287.747 4.738.174 1.093-.432 3.887-2.194 4.286-2.704.687-.876.176-2.216-1.211-3.176-1.791-1.238-4.863-1.301-7.093-.144-.929.482-1.947 1.528-2.161 2.221-.184.598-.183.661.028 1.505zm6.854 7.737c.342.672 1.004 1.243 1.934 1.667.708.323.772.329 3.584.329h2.862l1.43-.424c1.738-.515 1.996-.64 2.517-1.217.524-.581.775-1.06.874-1.669.065-.402.014-.579-.289-1.013-.772-1.102-2.728-2.294-4.532-2.761-3.448-.892-7.082.328-8.281 2.78-.444.909-.472 1.573-.099 2.308zm1.674 9.219c.207.497 1.589 1.579 2.654 2.077 1.571.735 3.003 1.053 4.463.993 1.09-.045 1.288-.095 2.308-.587 1.865-.899 3.461-2.721 3.461-3.95 0-.262-.172-.798-.397-1.236-.725-1.41-2.185-2.167-4.823-2.501-1.754-.222-2.536-.182-4.278.221-2.117.49-3.121 1.29-3.371 2.686-.164.919-.172 1.925-.017 2.297zm-1.947 10.383c.12.797.26 1.055.84 1.551.545.465 1.045.61 2.682.778 2.91.298 4.894.079 6.326-.701.902-.49 1.291-.916 1.788-1.955.454-.95.474-2.369.041-3.064-.7-1.125-3.227-2.316-5.633-2.654-.983-.139-1.17-.127-2.288.14-2.051.489-2.703.918-3.286 2.162-.519 1.108-.677 2.369-.47 3.743zm-5.262 8.868c.344.673.799 1.083 1.685 1.523.73.361 1.365.507 2.845.652 1.079.105 1.496.088 2.611-.107 2.077-.365 3.128-1.023 3.722-2.332.707-1.557-.462-3.586-2.697-4.682-2.76-1.352-5.266-1.125-7.233.656-.894.809-1.262 1.61-1.263 2.749-.001.705.068 1.03.33 1.541zM414.607 369.346c.555-.771 1.864-.979 4.478-.714 2.496.254 4.054.768 4.437 1.464l.149.272-1.543-.113c-.849-.062-2.808-.092-4.353-.067-3.35.056-3.739-.048-3.168-.842zm6.389 9.347c.519-.397.853-.449 2.841-.445 2.079.004 2.669.124 5.04 1.019 2.205.833 2.188.946-.096.624-1.787-.252-3.016-.235-4.591.062-1.632.309-2.85.33-3.251.056-.425-.29-.396-.969.057-1.316zm2.55 10.783c.935-.855 4.209-1.391 7.28-1.194 1.32.085 1.709.153 1.92.339.489.431.524.415-2.239 1.018-2.397.523-3.691.694-5.28.694-1.92.001-2.369-.228-1.681-.857zm-1.414 10.059c.466-.421 1.078-.567 3.261-.78 1.467-.144 2.252-.294 3.35-.639.788-.248 1.734-.463 2.102-.477.584-.023.673.006.707.231.021.144-.094.377-.261.526-.483.433-2.581 1.412-3.355 1.565a17.46 17.46 0 00-1.692.465c-1.319.438-3.239.537-3.903.201-.578-.291-.655-.69-.209-1.092zm-8.955 8.214c.258-.251.836-.25 2.398.001 1.425.229 2.277.179 4.326-.253.77-.162 1.399-.249 1.399-.194 0 .201-1.498 1.006-2.58 1.387-2.135.752-5.156.792-5.647.075-.167-.242-.108-.809.104-1.016zm-32.02-33.095c.44-.943 1.365-1.711 3.074-2.553 1.561-.77 2.362-.933 4.607-.941 1.804-.006 2.04.021 3.123.358 5.064 1.579 7.583 3.144 9.356 5.815 1.196 1.801 1.886 3.458 2.779 6.67.461 1.658.475 1.773.47 3.861-.007 2.611-.221 3.727-1.369 7.112-.565 1.667-.967 2.609-1.455 3.411-.759 1.249-2.538 3.151-3.862 4.129-2.793 2.064-6.851 2.773-8.305 1.452-.729-.663-1.878-3.055-2.537-5.28-.38-1.286-.912-4.326-1.185-6.773-.402-3.613-.944-5.424-3.19-10.667-1.357-3.167-1.581-3.859-1.647-5.094-.042-.791-.005-1.188.141-1.5zm18.859 30.792c.238-.957.776-1.764 1.413-2.124 1.189-.67 3.287-.747 4.738-.174 1.093.432 3.887 2.194 4.286 2.704.687.876.176 2.216-1.211 3.176-1.791 1.238-4.863 1.301-7.093.144-.929-.482-1.947-1.528-2.161-2.221-.184-.598-.183-.661.028-1.505zm6.854-7.737c.342-.672 1.004-1.243 1.934-1.667.708-.323.772-.329 3.584-.329h2.862l1.43.424c1.738.515 1.996.64 2.517 1.217.524.581.775 1.06.874 1.669.065.402.014.579-.289 1.013-.772 1.102-2.728 2.294-4.532 2.761-3.448.892-7.082-.328-8.281-2.78-.444-.909-.472-1.573-.099-2.308zm1.674-9.219c.207-.497 1.589-1.579 2.654-2.077 1.571-.735 3.003-1.053 4.463-.993 1.09.045 1.288.095 2.308.587 1.865.899 3.461 2.721 3.461 3.95 0 .262-.172.798-.397 1.236-.725 1.41-2.185 2.167-4.823 2.501-1.754.222-2.536.182-4.278-.221-2.117-.49-3.121-1.29-3.371-2.686-.164-.919-.172-1.925-.017-2.297zm-1.947-10.383c.12-.797.26-1.055.84-1.551.545-.465 1.045-.61 2.682-.778 2.91-.298 4.894-.079 6.326.701.902.49 1.291.916 1.788 1.955.454.95.474 2.369.041 3.064-.7 1.125-3.227 2.316-5.633 2.654-.983.139-1.17.127-2.288-.14-2.051-.489-2.703-.918-3.286-2.162-.519-1.108-.677-2.369-.47-3.743zm-5.262-8.868c.344-.673.799-1.083 1.685-1.523.73-.361 1.365-.507 2.845-.652 1.079-.105 1.496-.088 2.611.107 2.077.365 3.128 1.023 3.722 2.332.707 1.557-.462 3.586-2.697 4.682-2.76 1.352-5.266 1.125-7.233-.656-.894-.809-1.262-1.61-1.263-2.749-.001-.705.068-1.03.33-1.541zM280.688 471.049c.289.905 1.47 1.508 4.037 2.063 2.453.53 4.093.523 4.673-.021l.225-.212-1.502-.37c-.827-.203-2.699-.78-4.161-1.282-3.168-1.088-3.571-1.11-3.272-.178zm8.964-6.915c.371.538.672.691 2.564 1.302 1.978.638 2.577.707 5.108.587 2.355-.11 2.373-.223.102-.623-1.777-.312-2.941-.708-4.347-1.477-1.457-.798-2.609-1.194-3.075-1.058-.494.144-.676.8-.352 1.269zm5.757-9.467c.625 1.101 3.573 2.624 6.555 3.386 1.281.327 1.672.381 1.93.27.599-.258.627-.232-1.814-1.66-2.118-1.238-3.297-1.8-4.807-2.292-1.826-.594-2.324-.515-1.864.297v-.001zm1.764-10.003c.313.543.85.872 2.86 1.749 1.351.59 2.051.975 2.989 1.643.673.479 1.506.976 1.851 1.103.549.203.643.202.744-.002.064-.13.027-.387-.085-.58-.326-.562-2.019-2.141-2.708-2.525-.35-.196-1.01-.63-1.465-.965-1.119-.824-2.915-1.512-3.65-1.398-.64.099-.836.455-.536.975zm-5.978-10.58c.167.318.717.497 2.28.74 1.426.223 2.222.533 4.037 1.577.681.392 1.253.67 1.27.617.062-.191-1.114-1.42-2.025-2.116-1.798-1.374-4.659-2.346-5.348-1.817-.233.179-.352.737-.214.999zm-40.68 21.58c.127 1.033.769 2.05 2.134 3.379 1.247 1.214 1.958 1.617 4.091 2.318 1.713.563 1.947.61 3.08.624 5.305.064 8.184-.646 10.696-2.639 1.693-1.342 2.862-2.705 4.704-5.484.951-1.435 1-1.54 1.64-3.527.801-2.485.941-3.613.896-7.187-.023-1.76-.114-2.78-.33-3.694-.336-1.422-1.44-3.78-2.397-5.12-2.018-2.826-5.658-4.755-7.45-3.947-.898.405-2.731 2.325-4.044 4.237-.759 1.106-2.205 3.833-3.22 6.075-1.499 3.312-2.574 4.867-6.331 9.16-2.268 2.592-2.695 3.182-3.14 4.335-.284.74-.372 1.129-.33 1.47h.001zm27.45-23.457c-.068.984.193 1.918.688 2.457.924 1.005 2.895 1.726 4.453 1.63 1.172-.073 4.375-.886 4.911-1.247.925-.621.853-2.053-.17-3.395-1.32-1.731-4.222-2.74-6.701-2.329-1.033.171-2.325.852-2.742 1.444-.359.512-.378.573-.438 1.44h-.001zm4.129 9.477c.117.744.571 1.492 1.323 2.183.574.526.633.552 3.307 1.42l2.723.885 1.491.038c1.811.048 2.096.009 2.769-.379.678-.391 1.065-.769 1.347-1.317.186-.363.193-.547.038-1.054-.393-1.286-1.885-3.024-3.456-4.026-3.004-1.914-6.838-1.876-8.735.085-.703.727-.936 1.351-.807 2.165zm-1.257 9.285c.043.537 1.023 1.992 1.882 2.795 1.267 1.185 2.53 1.93 3.938 2.324 1.05.294 1.254.307 2.376.155 2.051-.279 4.133-1.519 4.513-2.688.08-.248.082-.811.003-1.298-.253-1.564-1.408-2.736-3.814-3.869-1.598-.753-2.355-.956-4.136-1.111-2.165-.188-3.367.262-4.036 1.512-.441.824-.759 1.778-.726 2.18zm-5.06 9.273c-.133.795-.079 1.084.319 1.734.375.612.805.904 2.311 1.57 2.675 1.182 4.629 1.586 6.232 1.288 1.009-.188 1.511-.473 2.305-1.307.726-.764 1.182-2.107.986-2.901-.318-1.287-2.353-3.2-4.537-4.265-.893-.436-1.074-.483-2.22-.575-2.101-.168-2.854.039-3.792 1.041-.837.894-1.377 2.045-1.605 3.415h.001zm-7.746 6.808c.12.746.425 1.277 1.133 1.969.582.569 1.141.904 2.504 1.499.994.434 1.395.547 2.516.705 2.088.295 3.291-.006 4.261-1.067 1.153-1.263.668-3.554-1.119-5.286-2.207-2.14-4.661-2.698-7.081-1.612-1.101.493-1.698 1.141-2.052 2.224-.218.671-.252 1.001-.161 1.568h-.001zM297.745 307.32c.873-.375 2.103.12 4.206 1.694 2.009 1.503 3.079 2.746 3.049 3.541l-.012.309-1.264-.892c-.696-.49-2.359-1.525-3.697-2.299-2.9-1.677-3.181-1.967-2.282-2.353zm.662 11.303c.65-.074.963.053 2.665 1.081 1.78 1.074 2.224 1.481 3.795 3.469 1.461 1.85 1.388 1.938-.403.486-1.402-1.136-2.465-1.755-3.967-2.311-1.559-.577-2.613-1.186-2.816-1.627-.215-.467.16-1.035.726-1.098zm-3.367 10.555c1.241-.251 4.324.975 6.855 2.727 1.088.752 1.386 1.011 1.471 1.279.197.621.236.625-2.444-.281-2.324-.785-3.521-1.306-4.882-2.124-1.647-.988-1.914-1.416-1-1.601zm-6.393 7.894c.616-.12 1.216.07 3.197 1.011 1.331.633 2.081.909 3.2 1.178.804.194 1.725.497 2.048.674.512.281.574.352.486.562-.056.134-.274.274-.493.316-.638.123-2.941-.119-3.683-.386a17.38 17.38 0 00-1.689-.473c-1.356-.304-3.053-1.208-3.45-1.837-.345-.549-.205-.93.384-1.045zm-11.906 2.429c.35-.082.845.216 2.055 1.236 1.102.93 1.859 1.327 3.838 2.012.743.257 1.327.506 1.299.554-.104.172-1.803.09-2.926-.14-2.217-.456-4.827-1.977-4.88-2.845-.017-.293.325-.749.614-.817zm-10.402-44.859c.863-.582 2.052-.764 3.95-.606 1.734.145 2.505.417 4.433 1.567 1.55.924 1.739 1.069 2.492 1.915 3.529 3.961 4.882 6.601 5.026 9.804.097 2.158-.164 3.935-1.053 7.148-.459 1.659-.506 1.764-1.586 3.551-1.351 2.235-2.109 3.081-4.837 5.391-1.343 1.138-2.172 1.739-3.004 2.175-1.293.679-3.798 1.393-5.436 1.55-3.457.331-7.301-1.151-7.866-3.033-.284-.944-.038-3.586.544-5.832.336-1.298 1.446-4.178 2.472-6.416 1.516-3.304 1.985-5.135 2.76-10.787.468-3.413.633-4.122 1.212-5.214.371-.7.608-1.021.893-1.213zm.306 36.107c.697-.698 1.574-1.113 2.306-1.093 1.364.037 3.202 1.052 4.15 2.291.715.933 2.202 3.883 2.282 4.525.137 1.105-.991 1.99-2.675 2.099-2.172.139-4.837-1.39-6.153-3.529-.549-.893-.883-2.314-.709-3.018.15-.607.184-.66.799-1.275zm9.86-3.102c.64-.4 1.501-.548 2.516-.433.774.088.832.115 3.242 1.564l2.453 1.474 1.008 1.1c1.224 1.336 1.381 1.576 1.53 2.339.15.768.119 1.309-.11 1.881-.152.378-.286.504-.77.72-1.228.547-3.52.561-5.306.032-3.415-1.011-5.902-3.929-5.666-6.648.087-1.008.405-1.592 1.103-2.029zm6.183-7.04c.434-.32 2.175-.535 3.345-.414 1.725.18 3.116.644 4.337 1.448.911.6 1.055.745 1.676 1.692 1.135 1.731 1.565 4.115.932 5.168-.134.224-.558.595-.977.855-1.347.835-2.989.732-5.423-.34-1.617-.713-2.266-1.151-3.552-2.393-1.562-1.51-2.011-2.714-1.506-4.038.332-.873.844-1.739 1.168-1.978zm3.679-9.903c.514-.622.766-.771 1.518-.897.708-.118 1.211.015 2.701.715 2.647 1.243 4.235 2.453 5.061 3.858.52.885.635 1.45.525 2.597-.099 1.049-.813 2.274-1.542 2.647-1.18.605-3.959.324-6.195-.625-.915-.388-1.069-.494-1.89-1.299-1.506-1.475-1.844-2.179-1.703-3.545.126-1.217.64-2.38 1.525-3.451zm.057-10.311c.642-.4 1.242-.518 2.229-.438.812.066 1.43.268 2.774.907.979.465 1.328.694 2.183 1.436 1.592 1.382 2.154 2.488 1.99 3.916-.197 1.699-2.244 2.836-4.724 2.623-3.062-.262-5.094-1.747-5.862-4.286-.349-1.155-.252-2.03.333-3.008.362-.605.589-.847 1.077-1.15zM137.45 344.048c.177.933 1.276 1.676 3.756 2.539 2.37.826 3.999 1.018 4.641.548l.249-.182-1.446-.55c-.796-.303-2.584-1.103-3.973-1.78-3.013-1.466-3.409-1.536-3.227-.575zm9.74-5.772c.303.58.584.769 2.387 1.605 1.886.875 2.472 1.016 4.998 1.206 2.351.177 2.383.067.178-.606-1.726-.527-2.834-1.062-4.135-1.996-1.349-.97-2.444-1.503-2.923-1.425-.508.083-.768.711-.505 1.216zm6.869-8.694c.485 1.169 3.226 3.04 6.093 4.159 1.232.481 1.613.583 1.883.504.625-.184.65-.155-1.599-1.869-1.951-1.487-3.052-2.189-4.491-2.86-1.741-.813-2.244-.795-1.886.066zm2.969-9.714c.245.578.737.969 2.625 2.085 1.269.75 1.918 1.218 2.767 1.994.61.558 1.376 1.153 1.704 1.321.519.268.612.279.738.089.08-.121.073-.381-.014-.586-.255-.597-1.743-2.371-2.38-2.837a17.172 17.172 0 01-1.336-1.136c-1.011-.954-2.709-1.855-3.453-1.832-.647.02-.885.349-.651.902zm-4.644-11.229c.127.336.651.58 2.173 1.012 1.388.395 2.14.8 3.814 2.058.629.472 1.163.817 1.186.767.085-.182-.933-1.545-1.752-2.347-1.617-1.584-4.338-2.897-5.087-2.456-.252.15-.439.689-.334.966zM109.377 325.1c.001 1.041.514 2.129 1.707 3.614 1.09 1.357 1.747 1.844 3.778 2.799 1.632.768 1.858.844 2.981.995 5.257.71 8.202.356 10.938-1.315 1.844-1.127 3.17-2.337 5.337-4.871 1.119-1.308 1.18-1.406 2.057-3.301 1.098-2.369 1.375-3.471 1.765-7.024.193-1.749.227-2.773.123-3.706-.16-1.453-.969-3.928-1.755-5.374-1.659-3.051-5.036-5.409-6.913-4.826-.941.293-2.994 1.975-4.53 3.713-.889 1.005-2.656 3.535-3.937 5.637-1.891 3.105-3.148 4.517-7.4 8.32-2.567 2.297-3.063 2.83-3.644 3.921-.373.699-.507 1.075-.507 1.418zm30.105-19.936c-.188.968-.042 1.927.384 2.522.793 1.11 2.662 2.066 4.22 2.16 1.173.07 4.45-.346 5.027-.639.993-.504 1.096-1.934.244-3.391-1.099-1.879-3.856-3.234-6.366-3.128-1.047.044-2.412.562-2.898 1.1-.419.464-.445.522-.611 1.376zm2.943 9.908c.026.754.384 1.552 1.047 2.329.506.592.561.624 3.109 1.812l2.595 1.21 1.475.22c1.793.268 2.079.264 2.795-.039.721-.305 1.151-.634 1.497-1.143.23-.338.259-.519.167-1.041-.233-1.325-1.503-3.232-2.941-4.417-2.748-2.266-6.557-2.696-8.679-.98-.787.636-1.093 1.226-1.065 2.05v-.001zm-2.38 9.063c-.022.539.773 2.103 1.528 3.004 1.113 1.33 2.276 2.224 3.625 2.787 1.007.419 1.208.457 2.34.443 2.07-.027 4.287-1.004 4.806-2.118.111-.236.181-.795.162-1.287-.06-1.584-1.064-2.888-3.314-4.306-1.495-.942-2.221-1.236-3.97-1.607-2.126-.45-3.374-.15-4.19 1.009-.538.764-.97 1.672-.986 2.075h-.001zm-6.152 8.587c-.228.774-.211 1.067.106 1.761.297.653.688.995 2.102 1.839 2.511 1.5 4.402 2.139 6.029 2.038 1.025-.063 1.557-.285 2.446-1.016.814-.669 1.431-1.947 1.333-2.759-.159-1.316-1.946-3.463-3.983-4.787-.833-.541-1.008-.609-2.134-.84-2.065-.423-2.837-.31-3.891.571-.939.785-1.616 1.861-2.008 3.193zm-8.517 5.814c.028.755.266 1.319.884 2.092.509.636 1.022 1.036 2.303 1.793.933.552 1.318.713 2.411 1.007 2.036.547 3.268.395 4.359-.541 1.299-1.112 1.097-3.445-.466-5.382-1.93-2.393-4.297-3.246-6.832-2.463-1.153.356-1.824.926-2.307 1.958-.299.638-.373.962-.352 1.536zM174.049 189.688c.905.289 1.508 1.47 2.063 4.037.53 2.453.523 4.093-.021 4.673l-.212.225-.37-1.502c-.203-.827-.78-2.699-1.282-4.161-1.088-3.168-1.11-3.571-.178-3.272zm-6.915 8.964c.538.371.691.672 1.302 2.564.638 1.978.707 2.577.587 5.108-.111 2.355-.223 2.373-.623.102-.312-1.777-.708-2.941-1.477-4.347-.798-1.457-1.194-2.609-1.058-3.075.144-.494.8-.676 1.269-.352zm-9.467 5.757c1.101.625 2.624 3.573 3.385 6.555.328 1.281.382 1.672.271 1.93-.258.599-.232.627-1.66-1.814-1.238-2.118-1.8-3.297-2.292-4.807-.594-1.826-.515-2.324.297-1.864h-.001zm-10.003 1.764c.543.313.872.85 1.749 2.86.59 1.351.975 2.051 1.643 2.989.479.673.976 1.506 1.103 1.851.202.549.202.643-.002.744-.13.064-.387.027-.58-.085-.562-.326-2.141-2.019-2.525-2.708-.196-.35-.63-1.01-.965-1.465-.824-1.119-1.512-2.915-1.398-3.65.099-.64.454-.836.975-.536zm-10.58-5.978c.318.167.497.717.74 2.28.223 1.426.533 2.222 1.577 4.037.392.681.67 1.253.617 1.27-.191.062-1.42-1.114-2.116-2.025-1.375-1.798-2.346-4.659-1.817-5.348.179-.233.737-.352.999-.214zm21.58-40.68c1.033.127 2.05.769 3.379 2.134 1.214 1.247 1.617 1.958 2.318 4.091.563 1.713.61 1.947.624 3.08.064 5.305-.646 8.184-2.639 10.696-1.342 1.693-2.705 2.862-5.484 4.704-1.435.951-1.54 1-3.527 1.64-2.485.801-3.613.941-7.187.896-1.76-.023-2.781-.114-3.694-.33-1.422-.336-3.78-1.44-5.12-2.397-2.826-2.018-4.755-5.658-3.947-7.45.405-.898 2.325-2.731 4.237-4.044 1.106-.759 3.833-2.205 6.075-3.22 3.312-1.499 4.867-2.574 9.16-6.331 2.592-2.268 3.182-2.695 4.335-3.14.74-.284 1.129-.372 1.47-.33v.001zm-23.457 27.45c.984-.068 1.918.193 2.457.688 1.005.924 1.726 2.895 1.629 4.453-.072 1.172-.885 4.375-1.246 4.911-.621.925-2.053.853-3.395-.17-1.731-1.32-2.74-4.222-2.329-6.701.171-1.033.851-2.325 1.444-2.742.512-.359.572-.378 1.44-.438v-.001zm9.477 4.129c.744.117 1.492.571 2.183 1.323.526.574.552.633 1.42 3.307l.884 2.723.039 1.491c.047 1.811.009 2.096-.379 2.769-.391.678-.769 1.065-1.317 1.347-.363.186-.547.193-1.054.038-1.286-.393-3.024-1.885-4.026-3.456-1.914-3.004-1.876-6.838.085-8.735.727-.703 1.351-.936 2.165-.807zm9.285-1.257c.537.043 1.992 1.023 2.795 1.882 1.185 1.267 1.93 2.53 2.324 3.938.294 1.05.307 1.254.155 2.376-.279 2.051-1.519 4.133-2.688 4.513-.248.08-.811.082-1.298.003-1.564-.253-2.736-1.408-3.869-3.814-.753-1.598-.956-2.355-1.111-4.136-.188-2.165.262-3.367 1.512-4.036.824-.441 1.778-.759 2.18-.726zm9.273-5.061c.795-.132 1.084-.078 1.734.32.612.375.904.805 1.57 2.311 1.182 2.675 1.586 4.629 1.288 6.232-.188 1.009-.473 1.511-1.307 2.305-.764.726-2.107 1.182-2.901.986-1.287-.318-3.2-2.353-4.265-4.537-.436-.893-.483-1.074-.575-2.22-.168-2.101.039-2.854 1.041-3.792.894-.837 2.045-1.377 3.415-1.605zm6.808-7.745c.746.12 1.277.425 1.969 1.133.569.582.904 1.141 1.499 2.504.434.994.546 1.395.705 2.516.295 2.088-.006 3.291-1.067 4.261-1.263 1.153-3.554.668-5.286-1.119-2.14-2.207-2.698-4.661-1.612-7.081.493-1.101 1.141-1.698 2.224-2.052.671-.218 1-.252 1.568-.161v-.001zM25.033 212.416c-.169.934.59 2.021 2.597 3.716 1.917 1.62 3.368 2.383 4.136 2.175l.298-.081-1.153-1.032c-.634-.567-2.017-1.955-3.072-3.085-2.287-2.448-2.631-2.656-2.806-1.693zm11.162-1.898c.075.65.27.926 1.653 2.354 1.447 1.492 1.943 1.834 4.234 2.917 2.131 1.007 2.2.916.383-.503-1.423-1.11-2.265-2.006-3.145-3.345-.912-1.389-1.743-2.279-2.218-2.378-.504-.105-.972.389-.907.955zm9.528-5.655c.034 1.265 1.923 3.993 4.198 6.066.978.89 1.297 1.122 1.577 1.145.65.053.663.089-.822-2.318-1.289-2.087-2.066-3.137-3.169-4.28-1.333-1.382-1.81-1.545-1.784-.613zm6.253-8.005c.022.627.341 1.169 1.704 2.887.916 1.155 1.354 1.824 1.868 2.854.37.739.872 1.569 1.117 1.843.39.436.472.48.657.348.118-.085.206-.329.197-.552-.023-.65-.777-2.839-1.205-3.502a17.427 17.427 0 01-.84-1.539c-.602-1.253-1.864-2.703-2.567-2.948-.611-.213-.951.009-.93.609zm-.311-12.148c-.002.36.4.775 1.666 1.724 1.154.866 1.71 1.514 2.823 3.288.418.666.793 1.179.832 1.141.145-.14-.317-1.777-.794-2.819-.942-2.058-3.012-4.259-3.869-4.115-.29.048-.657.485-.658.781zm-46.05-.044c-.372.972-.283 2.171.299 3.985.53 1.658.97 2.347 2.523 3.968 1.249 1.301 1.433 1.453 2.427 1.997 4.654 2.547 7.53 3.271 10.683 2.691 2.125-.39 3.797-1.045 6.728-2.634 1.513-.82 1.605-.89 3.104-2.344 1.873-1.819 2.527-2.748 4.165-5.926.806-1.564 1.205-2.508 1.443-3.416.37-1.413.503-4.014.287-5.645-.455-3.443-2.764-6.855-4.725-6.983-.983-.064-3.502.771-5.56 1.843-1.19.619-3.746 2.349-5.695 3.852-2.879 2.22-4.558 3.089-9.89 5.115-3.22 1.224-3.874 1.544-4.808 2.354-.598.519-.858.822-.981 1.143zm35.25-7.824c-.522.836-.73 1.784-.546 2.492.344 1.321 1.746 2.884 3.167 3.529 1.07.486 4.278 1.272 4.921 1.206 1.108-.115 1.717-1.413 1.444-3.078-.353-2.149-2.442-4.402-4.823-5.202-.993-.334-2.453-.34-3.1-.012-.557.283-.602.328-1.063 1.065zm-.803 10.305c-.246.713-.197 1.586.143 2.549.26.735.3.785 2.253 2.807l1.989 2.059 1.298.734c1.577.892 1.847.991 2.623.965.782-.026 1.302-.179 1.808-.53.335-.233.427-.392.528-.913.257-1.32-.245-3.555-1.162-5.177-1.753-3.1-5.156-4.867-7.752-4.025-.962.311-1.46.752-1.729 1.532v-.001zm-5.47 7.609c-.214.494-.032 2.239.35 3.351.563 1.641 1.328 2.892 2.386 3.901.79.752.963.86 2.025 1.252 1.943.717 4.362.6 5.246-.254.188-.182.454-.678.613-1.144.511-1.501.041-3.078-1.551-5.208-1.058-1.415-1.631-1.95-3.13-2.922-1.824-1.183-3.097-1.35-4.274-.56-.776.52-1.504 1.214-1.665 1.584zm-8.821 5.811c-.49.641-.579.92-.532 1.682.044.716.286 1.176 1.303 2.471 1.807 2.3 3.343 3.574 4.899 4.063.979.308 1.555.292 2.648-.072 1-.334 2.033-1.305 2.233-2.099.323-1.285-.576-3.93-2.004-5.896-.584-.803-.722-.93-1.69-1.549-1.776-1.135-2.538-1.306-3.837-.861-1.158.396-2.176 1.158-3.02 2.261zm-10.035 2.375c-.244.716-.224 1.328.076 2.271.247.776.583 1.333 1.507 2.499.674.85.975 1.138 1.89 1.804 1.706 1.241 2.91 1.539 4.264 1.058 1.611-.574 2.258-2.824 1.494-5.193-.945-2.925-2.85-4.57-5.496-4.747-1.203-.081-2.035.21-2.856 1.001-.507.489-.692.764-.878 1.307zM53.726 27.927c.95-.037 1.92.866 3.32 3.089 1.337 2.123 1.89 3.667 1.578 4.398l-.122.285-.861-1.286c-.474-.707-1.657-2.27-2.628-3.471-2.106-2.606-2.264-2.976-1.287-3.015zm-3.432 10.79c.633.164.88.395 2.1 1.964 1.277 1.64 1.546 2.18 2.3 4.599.7 2.25.601 2.306-.55.309-.902-1.563-1.673-2.522-2.876-3.58-1.248-1.096-2.014-2.043-2.046-2.528-.034-.513.52-.908 1.072-.765zm-6.926 8.647c1.248.21 3.687 2.46 5.422 5.002.746 1.092.931 1.44.915 1.721-.038.65-.004.669-2.18-1.137-1.889-1.567-2.82-2.482-3.798-3.733-1.183-1.513-1.279-2.008-.36-1.853zm-8.798 5.079c.618.109 1.11.5 2.622 2.089 1.017 1.068 1.618 1.594 2.566 2.247.68.468 1.433 1.082 1.67 1.363.378.446.41.534.253.699-.1.105-.354.157-.574.118-.64-.114-2.703-1.165-3.3-1.68a17.38 17.38 0 00-1.407-1.047c-1.158-.77-2.418-2.222-2.562-2.952-.126-.635.14-.94.732-.837zm-11.986-2c.356.05.712.505 1.476 1.89.696 1.264 1.26 1.906 2.862 3.254.601.507 1.058.949 1.014.983-.158.123-1.715-.561-2.68-1.179-1.908-1.22-3.8-3.575-3.537-4.404.088-.28.572-.583.865-.543zM28.95 4.837c1.014-.233 2.19.022 3.905.85 1.568.757 2.19 1.288 3.578 3.052 1.115 1.417 1.24 1.62 1.64 2.68 1.874 4.963 2.191 7.912 1.178 10.954-.682 2.05-1.563 3.615-3.545 6.296-1.023 1.384-1.105 1.466-2.753 2.747-2.062 1.603-3.073 2.12-6.447 3.3-1.662.581-2.652.844-3.584.954-1.451.17-4.045-.06-5.63-.502-3.347-.93-6.404-3.69-6.258-5.65.074-.983 1.25-3.361 2.598-5.25.78-1.091 2.848-3.382 4.608-5.103 2.6-2.542 3.693-4.084 6.442-9.082 1.66-3.018 2.068-3.621 3-4.433.597-.52.933-.736 1.268-.813zM16.296 38.654c.9-.4 1.868-.474 2.544-.194 1.26.524 2.612 2.13 3.054 3.627.332 1.127.664 4.414.508 5.042-.268 1.081-1.638 1.503-3.249 1-2.078-.648-4.018-3.03-4.48-5.5-.193-1.029.005-2.475.42-3.07.358-.513.408-.55 1.203-.904zm10.317.639c.74-.145 1.597.026 2.504.497.69.359.735.406 2.465 2.621l1.763 2.256.546 1.388c.664 1.686.725 1.967.59 2.732-.135.77-.358 1.264-.776 1.716-.278.3-.448.369-.977.397-1.343.07-3.487-.738-4.965-1.872-2.826-2.168-4.103-5.783-2.908-8.237.443-.91.949-1.34 1.758-1.498zm8.295-4.357c.52-.144 2.222.28 3.27.812 1.547.786 2.68 1.718 3.53 2.906.636.886.718 1.073.959 2.18.44 2.023-.013 4.403-.982 5.16-.206.16-.734.354-1.218.447-1.557.297-3.054-.388-4.94-2.26-1.255-1.246-1.705-1.887-2.46-3.508-.917-1.97-.905-3.254.041-4.31.623-.695 1.411-1.32 1.8-1.427zm6.983-7.927c.703-.396.991-.445 1.739-.293.703.143 1.124.447 2.265 1.634 2.026 2.11 3.074 3.808 3.342 5.417.169 1.012.073 1.58-.44 2.612-.469.944-1.575 1.832-2.389 1.92-1.317.14-3.811-1.118-5.56-2.805-.714-.69-.82-.845-1.298-1.89-.877-1.917-.94-2.695-.32-3.92.555-1.091 1.451-1.993 2.66-2.675zm3.748-9.606c.743-.143 1.346-.038 2.238.39.734.353 1.24.763 2.265 1.84.748.786.99 1.125 1.523 2.124.992 1.86 1.12 3.095.454 4.369-.791 1.515-3.11 1.843-5.35.756-2.764-1.342-4.128-3.457-3.936-6.103.087-1.203.492-1.985 1.389-2.688.555-.435.853-.58 1.417-.688z" />
</svg>