<svg xmlns="http://www.w3.org/2000/svg" viewBox="0 0 360 160">
  <path fill="#0061B3" fill-opacity=".17"
    d="M332.262 151.234c.072.724.86 1.363 2.693 2.186 1.751.787 2.98 1.043 3.5.728l.203-.123-1.066-.516c-.586-.283-1.895-1.013-2.91-1.621-2.198-1.318-2.495-1.398-2.42-.654zm7.808-3.749c.192.462.394.625 1.712 1.382 1.379.793 1.816.939 3.73 1.253 1.779.291 1.811.21.175-.45-1.28-.517-2.089-.998-3.018-1.798-.964-.829-1.763-1.308-2.133-1.281-.393.03-.633.491-.466.894zm5.815-6.168c.292.923 2.256 2.531 4.367 3.576.907.448 1.19.551 1.401.509.489-.098.506-.074-1.094-1.531-1.388-1.264-2.18-1.872-3.232-2.479-1.272-.736-1.658-.756-1.442-.075zm2.911-7.206c.148.456.497.787 1.862 1.764.917.656 1.38 1.056 1.975 1.704.428.466.973.971 1.211 1.121.378.238.448.253.556.117.069-.087.082-.286.029-.448-.155-.472-1.17-1.923-1.625-2.321a13.447 13.447 0 01-.943-.955c-.706-.795-1.94-1.595-2.509-1.627-.495-.027-.698.208-.556.645zm-2.791-8.869c.075.265.458.486 1.589.917 1.031.393 1.577.752 2.77 1.822.447.402.831.701.852.664.077-.133-.608-1.24-1.178-1.906-1.128-1.315-3.114-2.497-3.714-2.21-.202.097-.381.495-.319.713zm-33.877 9.679c-.069.793.25 1.656 1.06 2.868.74 1.107 1.209 1.522 2.693 2.386 1.193.694 1.36.766 2.206.957 3.96.891 6.227.818 8.424-.274 1.481-.735 2.572-1.569 4.393-3.356.94-.922.993-.993 1.788-2.379.995-1.732 1.279-2.553 1.814-5.236.263-1.32.357-2.098.341-2.816-.026-1.118-.477-3.059-.98-4.213-1.061-2.436-3.478-4.459-4.947-4.139-.737.16-2.414 1.305-3.701 2.528-.744.706-2.259 2.517-3.376 4.034-1.649 2.24-2.7 3.233-6.195 5.847-2.11 1.58-2.523 1.953-3.039 2.746-.331.508-.458.785-.481 1.047zm24.275-13.188c-.208.725-.161 1.466.124 1.948.531.899 1.892 1.753 3.073 1.928.889.132 3.415.033 3.874-.152.791-.318.965-1.401.412-2.568-.712-1.505-2.724-2.722-4.644-2.809-.8-.036-1.875.268-2.281.646-.351.325-.374.368-.558 1.007zm1.582 7.749c-.03.576.19 1.208.644 1.844.345.485.385.514 2.248 1.589l1.897 1.095 1.11.266c1.348.324 1.567.34 2.132.157.57-.185.92-.406 1.218-.772.197-.242.232-.378.196-.782-.089-1.025-.93-2.564-1.946-3.563-1.944-1.91-4.818-2.492-6.55-1.325-.642.432-.915.861-.949 1.491zm-2.418 6.749c-.053.408.449 1.653.964 2.391.76 1.088 1.587 1.847 2.578 2.365.739.387.89.43 1.753.494 1.58.118 3.335-.479 3.805-1.293.1-.173.191-.594.209-.971.06-1.211-.618-2.272-2.239-3.502-1.076-.818-1.61-1.091-2.918-1.49-1.59-.485-2.562-.339-3.261.49-.461.546-.851 1.21-.89 1.516h-.001zm-5.262 6.134c-.225.575-.231.799-.036 1.349.183.517.458.804 1.479 1.542 1.814 1.311 3.213 1.924 4.46 1.955.785.02 1.205-.113 1.932-.611.665-.456 1.22-1.388 1.2-2.014-.034-1.014-1.252-2.769-2.717-3.914-.599-.468-.727-.532-1.57-.783-1.546-.46-2.142-.425-3.004.176-.768.536-1.355 1.311-1.744 2.3zm-6.879 3.863c-.029.578.115 1.023.535 1.654.345.519.71.858 1.635 1.52.675.483.957.631 1.771.928 1.516.553 2.464.519 3.358-.121 1.064-.761 1.066-2.553.004-4.134-1.311-1.952-3.059-2.76-5.043-2.333-.902.195-1.452.584-1.889 1.339-.27.467-.348.708-.37 1.147h-.001zM307.864 27.102c.615-.388 1.603-.161 3.381.776 1.698.896 2.655 1.707 2.728 2.31l.028.236-1.063-.522c-.584-.288-1.965-.87-3.068-1.295-2.393-.92-2.639-1.106-2.006-1.505zm1.853 8.461c.482-.133.734-.074 2.143.499 1.473.598 1.858.852 3.283 2.167 1.325 1.223 1.281 1.298-.247.416-1.195-.691-2.072-1.032-3.274-1.272-1.247-.25-2.116-.584-2.323-.893-.218-.327-.002-.8.418-.917zm-1.281 8.38c.907-.338 3.384.22 5.506 1.24.912.438 1.168.598 1.265.79.223.446.253.445-1.88.08-1.851-.315-2.818-.565-3.944-1.02-1.363-.55-1.616-.841-.947-1.09zm-3.886 6.73c.451-.164.927-.093 2.536.382 1.082.318 1.682.437 2.56.507.63.05 1.363.169 1.628.264.421.15.476.197.435.367-.027.108-.175.24-.336.298-.467.169-2.236.262-2.829.148a13.25 13.25 0 00-1.333-.155c-1.061-.067-2.451-.547-2.826-.976-.327-.372-.267-.677.165-.835zm-8.707 3.261c.255-.104.665.062 1.701.688.944.57 1.564.78 3.141 1.06.592.106 1.064.224 1.048.264-.058.142-1.351.284-2.228.244-1.73-.078-3.884-.916-4.028-1.565-.048-.22.156-.605.366-.691zM282.614 21.28c.582-.543 1.459-.823 2.912-.93 1.328-.099 1.943.015 3.538.653 1.281.512 1.441.6 2.112 1.149 3.141 2.571 4.479 4.403 4.971 6.807.332 1.62.347 2.993.06 5.527-.148 1.309-.171 1.394-.774 2.874-.753 1.85-1.225 2.58-3.009 4.653-.879 1.02-1.434 1.573-2.01 2.003-.896.668-2.703 1.507-3.922 1.821-2.573.664-5.655.004-6.308-1.35-.327-.68-.457-2.706-.286-4.472.098-1.022.592-3.33 1.1-5.144.75-2.679.885-4.119.794-8.482-.055-2.635-.015-3.19.292-4.085.197-.573.337-.845.529-1.024h.001zm4.552 27.248c.444-.61 1.057-1.03 1.612-1.102 1.035-.134 2.546.413 3.411 1.235.651.62 2.128 2.67 2.265 3.146.237.82-.51 1.623-1.769 1.906-1.625.366-3.823-.47-5.073-1.93-.521-.608-.944-1.643-.896-2.195.04-.477.059-.521.451-1.06h-.001zm7.08-3.524c.436-.378 1.069-.594 1.85-.628.595-.026.642-.012 2.636.794l2.031.82.893.71c1.085.864 1.232 1.027 1.436 1.585.206.562.246.975.142 1.434-.069.305-.156.416-.496.637-.862.56-2.592.845-4.005.66-2.702-.356-4.931-2.263-5.078-4.346-.054-.772.116-1.252.591-1.666zm3.83-6.06c.289-.293 1.579-.665 2.478-.713 1.325-.07 2.432.114 3.451.575.76.344.886.437 1.468 1.078 1.066 1.172 1.676 2.922 1.324 3.794-.075.186-.351.516-.637.763-.917.792-2.171.911-4.138.392-1.307-.345-1.851-.598-2.971-1.383-1.361-.954-1.844-1.81-1.621-2.871.146-.7.429-1.415.646-1.635zm1.595-7.923c.314-.532.486-.674 1.04-.86.52-.174.916-.134 2.126.217 2.149.622 3.494 1.347 4.286 2.31.499.607.653 1.02.708 1.9.05.804-.343 1.816-.848 2.185-.82.597-2.953.718-4.757.268-.738-.183-.867-.245-1.584-.755-1.314-.934-1.654-1.426-1.711-2.475-.05-.935.199-1.875.74-2.79zm-1.192-7.8c.438-.378.878-.539 1.633-.596.621-.048 1.113.031 2.204.352.796.235 1.087.366 1.822.825 1.369.853 1.926 1.622 1.972 2.72.055 1.308-1.356 2.412-3.255 2.549-2.346.168-4.059-.712-4.943-2.538-.402-.83-.434-1.504-.108-2.313.201-.5.343-.71.675-.998zM217.75 109.646c.425.59 1.426.75 3.426.547 1.91-.194 3.101-.588 3.395-1.121l.114-.207-1.181.086c-.649.048-2.148.071-3.33.051-2.563-.042-2.861.037-2.424.644zm4.888-7.151c.397.304.653.344 2.174.341 1.59-.003 2.042-.095 3.856-.78 1.687-.637 1.674-.724-.073-.477-1.368.192-2.309.18-3.513-.048-1.249-.236-2.181-.252-2.488-.043-.325.222-.302.742.044 1.007zm1.951-8.25c.715.654 3.22 1.065 5.57.914 1.01-.065 1.307-.117 1.469-.26.374-.329.401-.317-1.713-.778-1.834-.4-2.824-.531-4.039-.531-1.47 0-1.813.174-1.287.656zm-1.082-7.696c.357.322.825.434 2.495.597 1.122.11 1.723.225 2.563.489.603.19 1.327.354 1.609.365.446.018.515-.005.54-.177.016-.11-.072-.288-.199-.402-.37-.332-1.975-1.08-2.567-1.198-.302-.059-.884-.22-1.295-.355-1.009-.335-2.478-.411-2.986-.155-.442.224-.501.529-.16.837zm-6.851-6.284c.197.192.639.192 1.835 0 1.089-.176 1.742-.138 3.31.192.588.124 1.07.191 1.07.149 0-.154-1.147-.77-1.974-1.061-1.633-.575-3.945-.606-4.321-.058-.127.185-.082.62.08.778zm-24.498 25.32c.337.722 1.044 1.31 2.352 1.954 1.194.589 1.807.714 3.524.72 1.38.004 1.562-.017 2.389-.275 3.875-1.207 5.802-2.405 7.159-4.448.915-1.378 1.443-2.646 2.126-5.103.353-1.269.364-1.357.36-2.954-.005-1.998-.17-2.852-1.048-5.442-.432-1.275-.74-1.996-1.113-2.61-.581-.955-1.942-2.41-2.954-3.158-2.137-1.58-5.242-2.122-6.354-1.111-.558.507-1.438 2.337-1.941 4.04-.292.983-.699 3.31-.907 5.181-.308 2.764-.723 4.15-2.441 8.162-1.038 2.422-1.209 2.952-1.26 3.897-.032.605-.004.909.107 1.147h.001zm14.428-23.558c.183.732.594 1.35 1.082 1.625.909.513 2.514.572 3.625.133.836-.33 2.974-1.679 3.279-2.068.526-.671.135-1.696-.927-2.43-1.37-.948-3.72-.996-5.426-.111-.712.369-1.491 1.17-1.654 1.7-.14.457-.14.505.021 1.15zm5.245 5.92c.261.513.768.95 1.479 1.275.542.247.591.252 2.742.252h2.19l1.094-.325c1.33-.394 1.527-.49 1.925-.93.402-.445.594-.812.669-1.278.05-.308.011-.443-.221-.775-.59-.843-2.087-1.755-3.467-2.112-2.638-.683-5.419.25-6.336 2.127-.339.695-.361 1.203-.075 1.765zm1.28 7.053c.159.38 1.216 1.208 2.031 1.589 1.202.562 2.297.806 3.415.76.833-.035.985-.074 1.765-.45 1.427-.688 2.648-2.082 2.648-3.022 0-.2-.132-.61-.304-.945-.554-1.079-1.672-1.659-3.69-1.914-1.341-.17-1.94-.139-3.272.17-1.62.374-2.389.986-2.58 2.054-.126.703-.131 1.473-.013 1.758zm-1.489 7.943c.092.611.198.808.642 1.187.417.356.799.467 2.053.596 2.226.228 3.743.06 4.839-.537.69-.375.988-.701 1.368-1.495.348-.728.363-1.813.032-2.344-.536-.861-2.469-1.772-4.31-2.031-.752-.106-.895-.098-1.751.106-1.569.375-2.068.703-2.513 1.655-.398.847-.519 1.813-.36 2.863zm-4.027 6.785c.264.515.612.829 1.29 1.165.559.277 1.044.388 2.177.499.825.081 1.144.068 1.997-.082 1.589-.278 2.394-.782 2.848-1.784.541-1.191-.354-2.744-2.064-3.582-2.111-1.034-4.029-.86-5.533.502-.684.619-.966 1.232-.967 2.104-.001.539.052.787.253 1.178h-.001zM159.603 9.95c.425-.59 1.426-.75 3.426-.547 1.91.194 3.101.587 3.395 1.12l.114.208-1.181-.086c-.649-.048-2.148-.07-3.33-.051-2.563.042-2.861-.037-2.424-.645zm4.888 7.15c.397-.303.653-.343 2.174-.34 1.59.003 2.042.095 3.856.78 1.687.637 1.674.724-.073.477-1.367-.192-2.308-.18-3.513.048-1.249.236-2.181.252-2.488.043-.325-.222-.302-.742.044-1.007zm1.951 8.25c.715-.653 3.22-1.064 5.57-.913 1.01.065 1.307.117 1.469.26.374.329.401.317-1.713.778-1.834.4-2.824.53-4.039.531-1.47 0-1.813-.175-1.287-.656zm-1.082 7.696c.357-.321.825-.433 2.495-.596 1.122-.11 1.723-.225 2.563-.489.603-.19 1.327-.354 1.609-.365.446-.018.515.005.54.177.016.11-.072.288-.199.402-.37.332-1.975 1.08-2.567 1.197-.302.06-.884.22-1.294.356-1.01.335-2.479.411-2.987.154-.442-.223-.501-.528-.16-.836zm-6.851 6.285c.197-.192.64-.192 1.835 0 1.089.176 1.742.138 3.31-.193.588-.124 1.07-.19 1.07-.148 0 .153-1.147.77-1.974 1.06-1.633.576-3.945.607-4.321.059-.127-.186-.082-.62.08-.778zm-24.498-25.32c.337-.722 1.044-1.31 2.352-1.954 1.194-.589 1.807-.714 3.524-.72 1.38-.004 1.562.016 2.389.274 3.875 1.208 5.802 2.406 7.159 4.45.915 1.377 1.443 2.645 2.126 5.102.353 1.269.364 1.357.36 2.954-.005 1.998-.17 2.851-1.048 5.442-.432 1.275-.74 1.996-1.113 2.61-.581.955-1.942 2.41-2.954 3.158-2.137 1.58-5.242 2.122-6.354 1.11-.558-.506-1.438-2.336-1.941-4.038-.292-.984-.699-3.31-.907-5.182-.308-2.764-.723-4.15-2.441-8.162-1.038-2.422-1.209-2.952-1.26-3.897-.032-.605-.004-.91.107-1.147h.001zm14.428 23.558c.183-.732.594-1.35 1.082-1.625.909-.513 2.514-.572 3.625-.133.836.33 2.974 1.679 3.279 2.068.526.671.135 1.696-.927 2.43-1.37.948-3.72.996-5.426.111-.711-.369-1.49-1.17-1.654-1.7-.14-.457-.14-.505.021-1.15zm5.245-5.92c.261-.514.768-.95 1.479-1.275.542-.247.591-.252 2.742-.252h2.19l1.094.325c1.33.394 1.527.49 1.925.93.402.445.594.812.669 1.277.05.309.012.444-.221.776-.59.843-2.087 1.755-3.467 2.112-2.638.683-5.419-.25-6.336-2.127-.339-.695-.361-1.203-.075-1.765zm1.28-7.053c.159-.38 1.216-1.208 2.031-1.589 1.202-.562 2.297-.806 3.415-.76.833.035.985.073 1.765.45 1.427.688 2.648 2.081 2.648 3.022 0 .2-.132.61-.304.945-.554 1.079-1.672 1.659-3.69 1.914-1.341.17-1.94.139-3.272-.17-1.62-.374-2.389-.987-2.58-2.054-.126-.704-.131-1.473-.013-1.758zm-1.489-7.944c.092-.61.198-.807.642-1.186.417-.356.799-.467 2.053-.596 2.226-.228 3.743-.06 4.839.537.69.375.988.7 1.368 1.495.348.727.363 1.813.032 2.344-.536.861-2.469 1.772-4.31 2.031-.752.106-.895.097-1.751-.107-1.569-.374-2.068-.702-2.513-1.654-.398-.848-.519-1.813-.36-2.864zm-4.027-6.784c.264-.515.612-.83 1.29-1.165.559-.277 1.044-.388 2.177-.5.825-.08 1.144-.067 1.997.083 1.589.278 2.394.782 2.848 1.784.541 1.19-.354 2.743-2.064 3.581-2.111 1.035-4.029.861-5.533-.501-.684-.62-.966-1.232-.967-2.104-.001-.54.052-.787.253-1.178h-.001zM94.57 125.713c.425.59 1.427.75 3.426.547 1.91-.194 3.102-.588 3.395-1.121l.114-.207-1.181.086c-.65.048-2.148.071-3.33.051-2.563-.043-2.86.037-2.423.644zm4.888-7.151c.398.304.653.344 2.174.341 1.59-.003 2.042-.095 3.856-.78 1.687-.638 1.674-.724-.073-.478-1.367.193-2.308.18-3.513-.047-1.249-.236-2.18-.252-2.487-.043-.326.222-.303.742.043 1.007zm1.952-8.249c.714.653 3.22 1.064 5.57.913 1.009-.065 1.307-.117 1.468-.26.374-.329.401-.317-1.713-.778-1.834-.401-2.824-.531-4.039-.532-1.469 0-1.813.175-1.286.657zm-1.082-7.697c.356.322.824.434 2.494.597 1.123.11 1.724.225 2.563.489.604.189 1.328.354 1.609.365.447.017.515-.005.54-.177.017-.11-.072-.288-.199-.402-.37-.332-1.975-1.081-2.567-1.198a13.157 13.157 0 01-1.294-.355c-1.01-.335-2.478-.411-2.987-.155-.442.224-.5.529-.159.836zm-6.852-6.284c.198.192.64.191 1.835 0 1.09-.176 1.742-.138 3.31.192.588.124 1.07.191 1.07.149 0-.154-1.146-.77-1.974-1.061-1.633-.575-3.945-.606-4.32-.058-.128.185-.083.62.08.778zm-24.498 25.32c.337.722 1.045 1.31 2.352 1.954 1.194.588 1.807.714 3.525.719 1.38.005 1.56-.016 2.389-.274 3.875-1.207 5.802-2.405 7.159-4.449.914-1.377 1.442-2.645 2.125-5.102.353-1.269.364-1.357.36-2.955-.005-1.997-.17-2.851-1.047-5.441-.433-1.275-.74-1.996-1.114-2.61-.58-.955-1.942-2.41-2.954-3.158-2.137-1.58-5.242-2.122-6.354-1.111-.558.507-1.438 2.337-1.941 4.039-.291.984-.698 3.31-.907 5.182-.308 2.764-.722 4.15-2.44 8.161-1.039 2.423-1.21 2.953-1.26 3.898-.033.605-.004.909.107 1.147zm14.428-23.558c.183.732.594 1.35 1.082 1.625.91.513 2.515.571 3.625.133.836-.33 2.974-1.679 3.28-2.069.525-.67.134-1.695-.928-2.43-1.37-.947-3.72-.995-5.426-.11-.711.369-1.49 1.17-1.653 1.7-.141.457-.14.505.02 1.15zm5.245 5.919c.262.514.768.951 1.48 1.276.541.247.59.252 2.741.251h2.19l1.095-.324c1.329-.394 1.526-.49 1.925-.931.4-.444.593-.811.668-1.277.05-.308.012-.443-.22-.775-.59-.843-2.088-1.755-3.468-2.112-2.638-.683-5.418.25-6.335 2.126-.34.696-.362 1.204-.076 1.766zm1.28 7.054c.159.38 1.216 1.208 2.03 1.589 1.203.562 2.299.806 3.416.759.834-.034.985-.073 1.765-.449 1.427-.688 2.649-2.082 2.649-3.022 0-.2-.132-.61-.304-.945-.555-1.079-1.672-1.659-3.69-1.914-1.342-.17-1.94-.139-3.273.169-1.62.375-2.388.987-2.58 2.055-.125.703-.13 1.473-.012 1.758zm-1.49 7.943c.093.611.2.808.644 1.187.417.356.799.467 2.052.596 2.226.228 3.744.059 4.84-.537.69-.375.987-.701 1.367-1.495.348-.728.363-1.813.032-2.345-.536-.861-2.469-1.772-4.31-2.031-.752-.105-.895-.097-1.75.107-1.57.375-2.069.703-2.514 1.654-.397.848-.519 1.814-.36 2.864zm-4.025 6.785c.264.515.611.829 1.29 1.165.558.277 1.043.388 2.176.499.826.081 1.144.068 1.998-.082 1.589-.279 2.393-.782 2.847-1.784.541-1.191-.353-2.744-2.064-3.582-2.111-1.034-4.029-.861-5.533.502-.684.619-.966 1.232-.967 2.103 0 .54.053.788.253 1.179zM25.713 2.299c.424-.59 1.426-.75 3.425-.547 1.91.194 3.102.587 3.395 1.12l.114.208-1.18-.086c-.65-.048-2.149-.07-3.33-.051-2.564.042-2.862-.037-2.424-.644zM30.6 9.45c.398-.304.653-.344 2.174-.341 1.59.003 2.042.095 3.856.78 1.687.637 1.674.724-.073.477-1.367-.192-2.308-.18-3.513.048-1.248.236-2.18.252-2.487.043-.325-.222-.303-.742.044-1.007zm1.952 8.25c.715-.654 3.22-1.065 5.57-.914 1.01.065 1.307.117 1.468.26.374.329.401.317-1.713.778-1.834.4-2.824.531-4.04.531-1.468 0-1.812-.174-1.285-.656zm-1.082 7.695c.357-.321.824-.433 2.494-.596 1.123-.11 1.724-.225 2.564-.489.603-.19 1.327-.354 1.608-.365.447-.018.515.005.54.177.017.11-.072.288-.199.402-.37.332-1.975 1.08-2.567 1.197a13.3 13.3 0 00-1.294.356c-1.01.335-2.478.411-2.986.154-.443-.223-.501-.528-.16-.836zm-6.851 6.285c.197-.192.639-.192 1.834 0 1.09.176 1.742.138 3.31-.192.588-.125 1.07-.191 1.07-.149 0 .154-1.146.77-1.973 1.061-1.634.575-3.945.606-4.322.058-.127-.185-.082-.62.08-.778zM.12 6.36c.337-.722 1.045-1.31 2.352-1.954 1.194-.589 1.807-.714 3.525-.72 1.38-.004 1.56.017 2.389.275 3.875 1.207 5.802 2.405 7.159 4.448.914 1.378 1.442 2.646 2.126 5.103.352 1.269.363 1.357.359 2.954-.005 1.998-.17 2.851-1.047 5.442-.433 1.275-.74 1.996-1.114 2.61-.58.955-1.941 2.41-2.954 3.158-2.137 1.58-5.242 2.122-6.354 1.111-.558-.507-1.437-2.337-1.941-4.04-.291-.983-.698-3.31-.907-5.181-.308-2.764-.722-4.15-2.44-8.162C.233 8.982.062 8.452.012 7.507-.02 6.902.009 6.598.12 6.36zM14.55 29.918c.182-.732.594-1.35 1.081-1.625.91-.513 2.515-.572 3.625-.133.836.33 2.974 1.679 3.28 2.068.525.671.134 1.696-.928 2.43-1.37.948-3.72.996-5.426.111-.711-.369-1.49-1.17-1.653-1.7-.141-.457-.14-.505.02-1.15zm5.244-5.92c.262-.513.768-.95 1.48-1.275.542-.247.59-.252 2.741-.252h2.19l1.095.325c1.329.394 1.527.49 1.925.93.4.445.593.812.668 1.278.05.308.012.443-.22.775-.59.843-2.088 1.755-3.468 2.112-2.638.683-5.418-.25-6.335-2.127-.34-.695-.362-1.203-.076-1.765zm1.28-7.053c.16-.38 1.216-1.208 2.031-1.589 1.202-.562 2.298-.806 3.415-.76.834.035.985.073 1.766.45 1.426.688 2.648 2.082 2.648 3.022 0 .2-.132.61-.304.945-.555 1.079-1.672 1.659-3.69 1.914-1.342.17-1.94.139-3.273-.17-1.62-.374-2.388-.987-2.58-2.054-.125-.703-.13-1.473-.012-1.758zm-1.489-7.943c.092-.61.199-.808.643-1.187.417-.356.799-.467 2.052-.596 2.226-.228 3.744-.06 4.84.537.69.375.987.7 1.367 1.495.348.728.363 1.813.032 2.344-.536.861-2.469 1.772-4.31 2.031-.752.106-.895.098-1.75-.107-1.57-.374-2.068-.702-2.514-1.654-.397-.848-.518-1.813-.36-2.863zm-4.026-6.785c.264-.515.611-.83 1.29-1.165.558-.277 1.043-.388 2.176-.5.826-.08 1.144-.067 1.998.083 1.589.278 2.393.782 2.848 1.784.54 1.191-.354 2.743-2.064 3.581-2.112 1.035-4.03.861-5.534-.501-.684-.62-.965-1.232-.967-2.104 0-.539.053-.787.253-1.178z" />
</svg>