<svg xmlns="http://www.w3.org/2000/svg" viewBox="0 0 30 36">
  <path fill="#4299e1"
    d="M1.636 12.735c-.537-.384-.683-1.29-.498-3.1.177-1.728.536-2.806 1.022-3.071l.189-.104L2.27 7.53c-.043.588-.064 1.944-.046 3.013.039 2.32-.034 2.59-.588 2.193zm6.522-4.422c-.278-.36-.314-.591-.311-1.968.003-1.438.086-1.847.71-3.489.582-1.526.66-1.514.436.067C8.818 4.16 8.83 5.01 9.037 6.1c.215 1.13.23 1.973.038 2.251-.202.294-.676.274-.917-.04zm7.522-1.766c-.596-.647-.97-2.914-.833-5.04.06-.914.107-1.183.237-1.329.3-.339.29-.363.71 1.55.365 1.66.484 2.556.484 3.655 0 1.33-.16 1.64-.598 1.164zm7.018.979c-.293-.323-.395-.746-.544-2.257-.1-1.016-.205-1.56-.446-2.32-.173-.546-.323-1.2-.333-1.455-.016-.404.005-.466.162-.49.1-.014.262.066.366.18.303.336.986 1.788 1.092 2.324.055.273.2.8.325 1.171.305.913.374 2.242.14 2.702-.203.4-.481.454-.762.145zm5.73 6.2c-.174-.179-.174-.58.001-1.66.16-.987.126-1.577-.176-2.996-.113-.532-.174-.968-.135-.968.14 0 .702 1.037.967 1.786.525 1.478.553 3.57.053 3.91-.169.115-.565.074-.71-.073zM5.34 35.893c-.658-.305-1.194-.946-1.782-2.129-.537-1.08-.65-1.635-.656-3.19-.004-1.248.015-1.412.25-2.161 1.101-3.506 2.193-5.25 4.057-6.478 1.256-.827 2.412-1.305 4.653-1.924 1.157-.319 1.237-.328 2.694-.325 1.821.005 2.6.153 4.962.948 1.162.391 1.82.67 2.38 1.007.87.526 2.197 1.757 2.88 2.674 1.44 1.933 1.935 4.743 1.013 5.75-.463.504-2.132 1.3-3.684 1.756-.897.263-3.018.631-4.725.82-2.52.279-3.784.654-7.442 2.209-2.21.94-2.693 1.094-3.554 1.14-.552.03-.829.003-1.046-.097zm21.482-13.057c-.667-.165-1.23-.537-1.482-.978-.467-.823-.521-2.276-.12-3.28.3-.757 1.53-2.691 1.885-2.968.612-.475 1.546-.122 2.216.84.864 1.239.908 3.365.101 4.91-.336.643-1.067 1.348-1.55 1.495-.417.128-.46.127-1.05-.019zm-5.398-4.745c-.468-.237-.867-.695-1.163-1.339-.225-.49-.23-.534-.23-2.48V12.29l.297-.99c.359-1.203.446-1.381.848-1.742.406-.363.74-.537 1.165-.605.28-.045.404-.01.707.2.769.534 1.6 1.889 1.926 3.137.622 2.388-.229 4.904-1.94 5.733-.634.308-1.097.328-1.61.069zm-6.432-1.159c-.347-.143-1.101-1.1-1.449-1.837-.512-1.088-.735-2.08-.692-3.09.031-.755.066-.892.41-1.598.626-1.29 1.898-2.396 2.755-2.396.182 0 .556.12.862.275.984.501 1.512 1.513 1.745 3.34.155 1.213.127 1.755-.154 2.96-.342 1.466-.9 2.161-1.874 2.334-.641.114-1.343.12-1.603.012zM7.75 18.281c-.557-.083-.737-.18-1.082-.581-.325-.378-.426-.724-.544-1.858-.208-2.014-.054-3.387.49-4.379.342-.624.639-.893 1.363-1.237.664-.315 1.653-.329 2.138-.03.785.486 1.616 2.235 1.852 3.9.097.681.089.81-.098 1.585-.34 1.42-.64 1.871-1.508 2.274-.773.36-1.653.47-2.611.326zm-6.187 3.643c-.47-.238-.756-.553-1.063-1.167-.252-.505-.353-.944-.455-1.97-.073-.746-.062-1.035.075-1.807.254-1.438.714-2.165 1.627-2.577 1.086-.49 2.502.32 3.266 1.868.944 1.91.785 3.646-.457 5.007-.565.619-1.123.874-1.919.875-.491 0-.718-.048-1.074-.229z" />
</svg>